<svg width="37" height="49" viewBox="0 0 37 49" fill="none" xmlns="http://www.w3.org/2000/svg">
<g clip-path="url(#clip0_120_96)">
<path d="M6.16667 0C2.76536 0 0 2.74668 0 6.125V42.875C0 46.2533 2.76536 49 6.16667 49H30.8333C34.2346 49 37 46.2533 37 42.875V6.125C37 2.74668 34.2346 0 30.8333 0H6.16667ZM9.25 6.125H27.75C29.4555 6.125 30.8333 7.49355 30.8333 9.1875V12.25C30.8333 13.9439 29.4555 15.3125 27.75 15.3125H9.25C7.54453 15.3125 6.16667 13.9439 6.16667 12.25V9.1875C6.16667 7.49355 7.54453 6.125 9.25 6.125ZM6.16667 21.4375C6.16667 19.7436 7.54453 18.375 9.25 18.375C10.9555 18.375 12.3333 19.7436 12.3333 21.4375C12.3333 23.1314 10.9555 24.5 9.25 24.5C7.54453 24.5 6.16667 23.1314 6.16667 21.4375ZM9.25 27.5625C10.9555 27.5625 12.3333 28.9311 12.3333 30.625C12.3333 32.3189 10.9555 33.6875 9.25 33.6875C7.54453 33.6875 6.16667 32.3189 6.16667 30.625C6.16667 28.9311 7.54453 27.5625 9.25 27.5625ZM6.16667 39.8125C6.16667 38.1186 7.54453 36.75 9.25 36.75H18.5C20.2055 36.75 21.5833 38.1186 21.5833 39.8125C21.5833 41.5064 20.2055 42.875 18.5 42.875H9.25C7.54453 42.875 6.16667 41.5064 6.16667 39.8125ZM18.5 18.375C20.2055 18.375 21.5833 19.7436 21.5833 21.4375C21.5833 23.1314 20.2055 24.5 18.5 24.5C16.7945 24.5 15.4167 23.1314 15.4167 21.4375C15.4167 19.7436 16.7945 18.375 18.5 18.375ZM15.4167 30.625C15.4167 28.9311 16.7945 27.5625 18.5 27.5625C20.2055 27.5625 21.5833 28.9311 21.5833 30.625C21.5833 32.3189 20.2055 33.6875 18.5 33.6875C16.7945 33.6875 15.4167 32.3189 15.4167 30.625ZM27.75 18.375C29.4555 18.375 30.8333 19.7436 30.8333 21.4375C30.8333 23.1314 29.4555 24.5 27.75 24.5C26.0445 24.5 24.6667 23.1314 24.6667 21.4375C24.6667 19.7436 26.0445 18.375 27.75 18.375ZM24.6667 30.625C24.6667 28.9311 26.0445 27.5625 27.75 27.5625C29.4555 27.5625 30.8333 28.9311 30.8333 30.625C30.8333 32.3189 29.4555 33.6875 27.75 33.6875C26.0445 33.6875 24.6667 32.3189 24.6667 30.625ZM27.75 36.75C29.4555 36.75 30.8333 38.1186 30.8333 39.8125C30.8333 41.5064 29.4555 42.875 27.75 42.875C26.0445 42.875 24.6667 41.5064 24.6667 39.8125C24.6667 38.1186 26.0445 36.75 27.75 36.75Z" fill="#F10000"/>
</g>
<defs>
<clipPath id="clip0_120_96">
<rect width="37" height="49" fill="white"/>
</clipPath>
</defs>
</svg>
