<svg width="35" height="35" viewBox="0 0 35 35" fill="none" xmlns="http://www.w3.org/2000/svg">
<g clip-path="url(#clip0_120_105)">
<path d="M1.09374 0H9.84374C10.206 0 10.5478 0.18457 10.7529 0.485352L16.2969 8.79785C12.9131 9.07812 9.87108 10.5479 7.57421 12.7832L0.184559 1.70215C-0.0410268 1.36719 -0.0615346 0.936523 0.129872 0.581055C0.321278 0.225586 0.690418 0 1.09374 0ZM34.8154 1.70215L27.4258 12.79C25.1357 10.5547 22.0869 9.08496 18.7031 8.80469L24.2471 0.485352C24.4521 0.177734 24.7939 0 25.1562 0H33.9062C34.3096 0 34.6787 0.21875 34.8701 0.581055C35.0615 0.943359 35.041 1.36719 34.8154 1.70215ZM29.5312 22.9688C29.5312 29.6133 24.1445 35 17.5 35C10.8555 35 5.46874 29.6133 5.46874 22.9688C5.46874 16.3242 10.8555 10.9375 17.5 10.9375C24.1445 10.9375 29.5312 16.3242 29.5312 22.9688ZM18.0742 16.4814C17.8418 16.0029 17.165 16.0029 16.9258 16.4814L15.3945 19.585C15.2988 19.7764 15.1211 19.9062 14.916 19.9336L11.4844 20.4326C10.958 20.5078 10.7529 21.1504 11.1289 21.5264L13.6103 23.9463C13.7607 24.0967 13.8291 24.3018 13.7949 24.5137L13.207 27.9248C13.1182 28.4443 13.665 28.8477 14.1367 28.6016L17.1992 26.9883C17.3838 26.8926 17.6094 26.8926 17.7939 26.9883L20.8564 28.6016C21.3281 28.8477 21.875 28.4512 21.7861 27.9248L21.1982 24.5137C21.1641 24.3086 21.2324 24.0967 21.3828 23.9463L23.8642 21.5264C24.2471 21.1572 24.0351 20.5146 23.5088 20.4326L20.084 19.9336C19.8789 19.9062 19.6943 19.7695 19.6055 19.585L18.0742 16.4814Z" fill="white"/>
</g>
<defs>
<clipPath id="clip0_120_105">
<rect width="35" height="35" fill="white"/>
</clipPath>
</defs>
</svg>
