<svg width="269" height="52" viewBox="0 0 269 52" fill="none" xmlns="http://www.w3.org/2000/svg">
<g filter="url(#filter0_d_116_53)">
<path d="M6.79932 8.60693L16.1685 7.97852L18.6631 12.0347L20.853 6.41699L26.9277 6.26465L34.1069 39.647L23.0239 38.5615L21.0054 27.1738L18.8154 31.3823L15.8638 26.0884L14.9116 35.7432L4.15234 36.5239L6.79932 8.60693ZM41.6099 40.5801L33.0215 41.0562L32.5645 20.623L29.7461 21.2515L30.6792 16.5669L40.353 12.5107L41.6099 40.5801ZM35.3638 0.970703C36.2651 0.970703 37.0396 1.12305 37.687 1.42773C38.3472 1.71973 38.8867 2.08154 39.3057 2.51318C39.7246 2.93213 40.0103 3.30029 40.1626 3.61768C40.3149 3.96045 40.3911 4.33496 40.3911 4.74121C40.3911 5.36328 40.2578 5.99805 39.9912 6.64551C39.7246 7.28027 39.4009 7.82617 39.02 8.2832C38.6392 8.74023 38.2773 9.00684 37.9346 9.08301C37.2744 9.18457 36.7793 9.23535 36.4492 9.23535C35.6113 9.23535 34.8813 9.08936 34.2593 8.79736C33.6372 8.50537 33.1421 8.08008 32.7739 7.52148C32.4058 6.96289 32.1772 6.30908 32.0884 5.56006C32.0884 4.48096 32.3486 3.47168 32.8691 2.53223C33.4023 1.59277 34.2339 1.07227 35.3638 0.970703ZM62.4238 22.4893C62.043 22.3496 61.1162 22.0576 59.6436 21.6133C58.1836 21.1562 56.876 20.7627 55.7207 20.4326C54.5781 20.1025 53.3149 19.7852 51.9312 19.4805C50.5474 19.1758 49.4683 19.0234 48.6938 19.0234C48.2876 19.0234 47.9766 19.0869 47.7607 19.2139C47.1387 19.6836 46.8276 20.1152 46.8276 20.5088C46.8276 21.1309 47.4497 21.6704 48.6938 22.1274C49.938 22.5718 51.4487 22.9019 53.2261 23.1177C55.6636 23.3843 57.6313 23.9556 59.1294 24.8315C60.6401 25.7075 61.7319 26.7295 62.4048 27.8975C63.0776 29.0527 63.4141 30.2397 63.4141 31.4585C63.4141 32.3218 63.2427 33.1279 62.8999 33.877C61.4272 37 58.6025 38.5615 54.4258 38.5615C53.2832 38.5615 51.9946 38.4346 50.5601 38.1807C49.1255 37.9395 47.748 37.6348 46.4277 37.2666C45.1201 36.9111 43.7236 36.4922 42.2383 36.0098C40.7529 35.5273 39.3691 35.0767 38.0869 34.6577C38.417 33.9722 38.8359 33.147 39.3438 32.1821C39.8516 31.2046 40.3467 30.2524 40.8291 29.3257C41.2988 28.3989 41.5337 27.8911 41.5337 27.8022C41.9019 28.145 42.3589 28.4243 42.9048 28.6401C43.4634 28.8433 44.2695 29.0908 45.3232 29.3828C46.3896 29.6621 47.2021 29.916 47.7607 30.1445C48.9922 30.6016 50.2681 30.8301 51.5884 30.8301C52.4009 30.8301 53.1753 30.7476 53.9116 30.5825C54.6479 30.4048 55.0415 30.2588 55.0923 30.1445C55.0923 29.8145 54.5273 29.4907 53.3975 29.1733C52.2803 28.8433 51.0298 28.5894 49.646 28.4116C48.0718 28.2339 46.4849 27.853 44.8853 27.269C43.2983 26.6724 41.9463 25.8027 40.8291 24.6602C39.7119 23.5176 39.1533 22.1084 39.1533 20.4326C39.1533 19.1504 39.4771 17.811 40.1245 16.4146C40.8354 14.853 41.9019 13.7231 43.3237 13.0249C44.7456 12.314 46.4468 11.9585 48.4272 11.9585C50.7124 11.9585 53.0674 12.2822 55.4922 12.9297C57.917 13.5771 61.2178 14.5801 65.3945 15.9385C65.3057 16.1289 64.9565 16.9414 64.3472 18.376C63.7378 19.7979 63.2808 20.8389 62.9761 21.499C62.6714 22.1592 62.4873 22.4893 62.4238 22.4893ZM80.4385 6.74072C81.9746 6.23291 83.4155 5.76318 84.7612 5.33154C86.1196 4.8999 87.5479 4.49365 89.0459 4.11279C90.5439 3.71924 91.9785 3.4082 93.3496 3.17969C94.4033 3.00195 95.4824 2.91309 96.5869 2.91309C98.4277 2.91309 99.6338 2.96387 100.205 3.06543C101.068 3.23047 101.881 3.49707 102.643 3.86523C103.417 4.2334 104.103 4.72852 104.699 5.35059C105.309 5.95996 105.804 6.68359 106.185 7.52148C106.337 7.86426 106.413 8.22607 106.413 8.60693C106.413 10.0288 105.632 11.7808 104.071 13.8628C102.522 15.9448 100.96 17.7603 99.3862 19.3091C97.8247 20.8579 96.6567 21.9688 95.8823 22.6416L99.3101 34.6577L94.3208 38.2568L85.5801 13.2915C85.5547 13.2915 85.4341 13.4121 85.2183 13.6533C85.0024 13.8945 84.7168 14.2119 84.3613 14.6055C84.0186 14.9863 83.8027 15.2212 83.7139 15.3101C83.6758 15.3101 83.5488 15.0371 83.333 14.4912C83.1299 13.9453 82.8506 13.1899 82.4951 12.2251C82.1523 11.2476 81.7651 10.1685 81.3335 8.98779C80.8892 7.79443 80.5908 7.04541 80.4385 6.74072ZM92.7593 12.0347L94.3208 17.6523C95.1079 16.8525 96.0854 15.7607 97.2534 14.377C98.4214 12.9932 99.0054 11.9902 99.0054 11.3682C99.0054 11.127 98.9038 10.9873 98.7007 10.9492C98.1294 10.8223 97.5645 10.7588 97.0059 10.7588C95.3301 10.7588 93.9146 11.1841 92.7593 12.0347ZM120.714 16.3765C121.616 16.8589 122.346 17.5127 122.904 18.3379C123.476 19.1504 123.888 20.0708 124.142 21.0991C124.409 22.1147 124.542 23.1748 124.542 24.2793C124.542 25.1934 124.466 26.0757 124.313 26.9263C124.174 27.7769 123.977 28.5576 123.723 29.2686C123.469 29.9795 123.171 30.5825 122.828 31.0776C122.028 32.271 121.171 33.2993 120.257 34.1626C119.343 35.0259 118.41 35.7241 117.458 36.2573C116.506 36.7778 115.56 37.1587 114.621 37.3999C113.694 37.6538 112.773 37.7808 111.859 37.7808C110.78 37.7808 109.752 37.6094 108.774 37.2666C107.81 36.9365 106.984 36.4985 106.299 35.9526C105.169 35.0132 104.287 33.75 103.652 32.1631C103.017 30.5635 102.7 28.875 102.7 27.0977C102.7 24.0381 103.582 21.5688 105.347 19.6899C106.857 18.0776 108.419 16.8652 110.031 16.0527C111.644 15.2275 113.294 14.8149 114.982 14.8149C115.973 14.8149 116.925 14.9419 117.839 15.1958C118.753 15.437 119.711 15.8306 120.714 16.3765ZM119.591 19.5757C119.375 20.5405 118.905 21.3911 118.182 22.1274C117.471 22.8638 116.772 23.2319 116.087 23.2319C115.744 23.2319 115.439 23.1431 115.173 22.9653C114.792 22.6606 114.602 22.1274 114.602 21.3657C114.602 20.7817 114.792 20.2041 115.173 19.6328C115.566 19.0615 116.182 18.6108 117.02 18.2808C116.182 18.2808 115.37 18.4395 114.583 18.7568C113.808 19.0742 113.142 19.4868 112.583 19.9946C112.024 20.4897 111.574 21.0547 111.231 21.6895C110.901 22.3115 110.736 22.9399 110.736 23.5747C110.736 24.7554 111.282 25.6948 112.374 26.3931C113.389 27.0405 114.354 27.3643 115.268 27.3643C116.169 27.3643 116.969 27.0659 117.667 26.4692C118.366 25.8599 118.899 25.0854 119.267 24.146C119.635 23.1938 119.819 22.2544 119.819 21.3276C119.819 20.6929 119.743 20.1089 119.591 19.5757ZM121.381 5.1792L131.055 1.12305L132.464 23.1177L140.424 18.7568L148.688 19.9946L137.91 28.2593L148.06 35.9146L148.517 43.5508L133.549 32.7915L134.025 42.1416L124.961 42.313L123.247 9.23535L120.448 9.86377L121.381 5.1792ZM161.942 26.4692L166.532 32.0107C166.164 33.0771 165.288 34.0547 163.904 34.9434C162.533 35.832 160.895 36.5303 158.991 37.0381C157.099 37.5586 155.208 37.8188 153.316 37.8188C151.64 37.8188 150.142 37.5967 148.822 37.1523C147.514 36.708 146.505 36.0352 145.794 35.1338C144.562 33.585 143.947 31.6045 143.947 29.1924C143.947 27.2881 144.29 25.4155 144.975 23.5747C145.673 21.7212 146.41 20.4263 147.184 19.6899C148.111 18.814 149.114 18.084 150.193 17.5C151.285 16.916 152.415 16.478 153.583 16.186C154.75 15.894 155.95 15.748 157.182 15.748C158.794 15.748 160.324 16.0083 161.771 16.5288C163.231 17.0366 164.507 17.7793 165.599 18.7568L155.144 31.23C156.071 31.23 156.947 31.0396 157.772 30.6587C158.61 30.2651 159.378 29.7129 160.076 29.002C160.774 28.2783 161.396 27.4341 161.942 26.4692ZM156.667 22.0322C156.045 21.7148 155.411 21.5562 154.763 21.5562C154.078 21.5562 153.411 21.6958 152.764 21.9751C152.129 22.2544 151.678 22.5845 151.412 22.9653C150.625 23.981 150.231 25.0981 150.231 26.3169C150.231 26.7612 150.275 27.1865 150.364 27.5928C150.453 27.999 150.605 28.5576 150.821 29.2686L156.667 22.0322ZM181.119 15.1577C184.407 14.1167 186.851 13.5962 188.45 13.5962C189.72 13.5962 190.812 13.8564 191.726 14.377C192.855 15.0244 194.074 16.1289 195.382 17.6904C196.689 19.252 197.502 20.6992 197.819 22.0322C198.492 24.7363 198.829 27.0977 198.829 29.1162C198.829 30.1826 198.759 31.3062 198.619 32.4868C198.479 33.6548 198.264 35.1592 197.972 37L190.012 37.4761C190.037 36.8413 190.05 35.9272 190.05 34.7339C190.05 29.7573 189.364 25.5234 187.993 22.0322C187.739 21.4102 187.441 20.9214 187.098 20.5659C186.755 20.2104 186.451 20.0327 186.184 20.0327C185.905 20.0327 185.765 20.2295 185.765 20.623C185.765 20.8516 185.791 21.0483 185.841 21.2134C185.93 21.4165 186.019 21.6895 186.108 22.0322C186.793 24.7871 187.136 27.1484 187.136 29.1162C187.136 30.0811 187.073 31.0967 186.946 32.1631C186.819 33.2168 186.597 34.8291 186.279 37L178.319 37.4761C178.345 36.8413 178.357 35.9272 178.357 34.7339C178.357 29.7446 177.666 25.5107 176.282 22.0322C176.117 21.626 175.99 21.2007 175.901 20.7563C175.812 20.2993 175.749 20.0708 175.71 20.0708C175.66 20.0708 175.514 20.3691 175.272 20.9658C175.031 21.5625 174.771 22.1782 174.492 22.813C174.301 23.2573 174.143 23.7651 174.016 24.3364C173.901 24.9077 173.812 25.5488 173.749 26.2598C173.698 26.9707 173.673 27.8086 173.673 28.7734C173.673 30.7285 173.787 33.2104 174.016 36.2192L164.666 37.3047C164.513 36.1875 164.374 35.0767 164.247 33.9722C164.12 32.8677 164.018 31.8457 163.942 30.9062C163.878 29.9541 163.847 28.9321 163.847 27.8403C163.847 27.3706 163.872 26.6914 163.923 25.8027L163.58 14.7007L171.064 13.7485L172.149 15.0054C174.155 14.3579 175.793 14.0342 177.062 14.0342C178.472 14.0342 179.824 14.4087 181.119 15.1577ZM214.33 16.3765C215.231 16.8589 215.961 17.5127 216.52 18.3379C217.091 19.1504 217.503 20.0708 217.757 21.0991C218.024 22.1147 218.157 23.1748 218.157 24.2793C218.157 25.1934 218.081 26.0757 217.929 26.9263C217.789 27.7769 217.592 28.5576 217.338 29.2686C217.084 29.9795 216.786 30.5825 216.443 31.0776C215.644 32.271 214.787 33.2993 213.873 34.1626C212.958 35.0259 212.025 35.7241 211.073 36.2573C210.121 36.7778 209.175 37.1587 208.236 37.3999C207.309 37.6538 206.389 37.7808 205.475 37.7808C204.396 37.7808 203.367 37.6094 202.39 37.2666C201.425 36.9365 200.6 36.4985 199.914 35.9526C198.784 35.0132 197.902 33.75 197.267 32.1631C196.632 30.5635 196.315 28.875 196.315 27.0977C196.315 24.0381 197.197 21.5688 198.962 19.6899C200.473 18.0776 202.034 16.8652 203.646 16.0527C205.259 15.2275 206.909 14.8149 208.598 14.8149C209.588 14.8149 210.54 14.9419 211.454 15.1958C212.368 15.437 213.327 15.8306 214.33 16.3765ZM213.206 19.5757C212.99 20.5405 212.521 21.3911 211.797 22.1274C211.086 22.8638 210.388 23.2319 209.702 23.2319C209.359 23.2319 209.055 23.1431 208.788 22.9653C208.407 22.6606 208.217 22.1274 208.217 21.3657C208.217 20.7817 208.407 20.2041 208.788 19.6328C209.182 19.0615 209.797 18.6108 210.635 18.2808C209.797 18.2808 208.985 18.4395 208.198 18.7568C207.423 19.0742 206.757 19.4868 206.198 19.9946C205.64 20.4897 205.189 21.0547 204.846 21.6895C204.516 22.3115 204.351 22.9399 204.351 23.5747C204.351 24.7554 204.897 25.6948 205.989 26.3931C207.004 27.0405 207.969 27.3643 208.883 27.3643C209.785 27.3643 210.584 27.0659 211.283 26.4692C211.981 25.8599 212.514 25.0854 212.882 24.146C213.25 23.1938 213.435 22.2544 213.435 21.3276C213.435 20.6929 213.358 20.1089 213.206 19.5757ZM224.822 15.0054C226.231 14.5356 227.444 14.1802 228.459 13.939C229.475 13.6851 230.446 13.5581 231.373 13.5581C232.617 13.5581 233.709 13.8311 234.648 14.377C235.778 15.0244 236.997 16.1289 238.305 17.6904C239.612 19.252 240.425 20.6992 240.742 22.0322C241.415 24.7363 241.751 27.0977 241.751 29.1162C241.751 30.1826 241.682 31.3062 241.542 32.4868C241.402 33.6548 241.187 35.1592 240.895 37L232.935 37.4761C232.96 36.8413 232.973 35.9272 232.973 34.7339C232.973 29.7573 232.287 25.5234 230.916 22.0322C230.383 20.7246 229.862 20.0708 229.354 20.0708C228.694 20.0708 227.964 20.9849 227.165 22.813C226.974 23.2573 226.815 23.7651 226.688 24.3364C226.574 24.9077 226.485 25.5488 226.422 26.2598C226.371 26.9707 226.346 27.8086 226.346 28.7734C226.346 30.7285 226.46 33.2104 226.688 36.2192L217.338 37.3047C217.186 36.1875 217.046 35.0767 216.919 33.9722C216.792 32.8677 216.691 31.8457 216.615 30.9062C216.551 29.9541 216.52 28.9321 216.52 27.8403C216.52 27.3706 216.545 26.6914 216.596 25.8027L216.253 14.7007L223.737 13.7485L224.822 15.0054ZM261.347 22.4893C260.966 22.3496 260.039 22.0576 258.566 21.6133C257.106 21.1562 255.799 20.7627 254.644 20.4326C253.501 20.1025 252.238 19.7852 250.854 19.4805C249.47 19.1758 248.391 19.0234 247.617 19.0234C247.21 19.0234 246.899 19.0869 246.684 19.2139C246.062 19.6836 245.75 20.1152 245.75 20.5088C245.75 21.1309 246.373 21.6704 247.617 22.1274C248.861 22.5718 250.372 22.9019 252.149 23.1177C254.586 23.3843 256.554 23.9556 258.052 24.8315C259.563 25.7075 260.655 26.7295 261.328 27.8975C262 29.0527 262.337 30.2397 262.337 31.4585C262.337 32.3218 262.166 33.1279 261.823 33.877C260.35 37 257.525 38.5615 253.349 38.5615C252.206 38.5615 250.917 38.4346 249.483 38.1807C248.048 37.9395 246.671 37.6348 245.351 37.2666C244.043 36.9111 242.646 36.4922 241.161 36.0098C239.676 35.5273 238.292 35.0767 237.01 34.6577C237.34 33.9722 237.759 33.147 238.267 32.1821C238.774 31.2046 239.27 30.2524 239.752 29.3257C240.222 28.3989 240.457 27.8911 240.457 27.8022C240.825 28.145 241.282 28.4243 241.828 28.6401C242.386 28.8433 243.192 29.0908 244.246 29.3828C245.312 29.6621 246.125 29.916 246.684 30.1445C247.915 30.6016 249.191 30.8301 250.511 30.8301C251.324 30.8301 252.098 30.7476 252.834 30.5825C253.571 30.4048 253.964 30.2588 254.015 30.1445C254.015 29.8145 253.45 29.4907 252.32 29.1733C251.203 28.8433 249.953 28.5894 248.569 28.4116C246.995 28.2339 245.408 27.853 243.808 27.269C242.221 26.6724 240.869 25.8027 239.752 24.6602C238.635 23.5176 238.076 22.1084 238.076 20.4326C238.076 19.1504 238.4 17.811 239.047 16.4146C239.758 14.853 240.825 13.7231 242.247 13.0249C243.668 12.314 245.37 11.9585 247.35 11.9585C249.635 11.9585 251.99 12.2822 254.415 12.9297C256.84 13.5771 260.141 14.5801 264.317 15.9385C264.229 16.1289 263.879 16.9414 263.27 18.376C262.661 19.7979 262.204 20.8389 261.899 21.499C261.594 22.1592 261.41 22.4893 261.347 22.4893Z" fill="#FFD80E"/>
<path d="M6.79932 8.60693L6.73239 7.60918L5.88404 7.66608L5.80378 8.51254L6.79932 8.60693ZM16.1685 7.97852L17.0203 7.45464L16.704 6.94035L16.1015 6.98076L16.1685 7.97852ZM18.6631 12.0347L17.8113 12.5585L18.8646 14.2711L19.5948 12.3979L18.6631 12.0347ZM20.853 6.41699L20.828 5.41731L20.1629 5.43398L19.9213 6.05378L20.853 6.41699ZM26.9277 6.26465L27.9054 6.0544L27.7311 5.24419L26.9027 5.26496L26.9277 6.26465ZM34.1069 39.647L34.0095 40.6422L35.3725 40.7757L35.0846 39.4367L34.1069 39.647ZM23.0239 38.5615L22.0393 38.7361L22.1716 39.4828L22.9265 39.5568L23.0239 38.5615ZM21.0054 27.1738L21.99 26.9993L21.4765 24.1021L20.1183 26.7122L21.0054 27.1738ZM18.8154 31.3823L17.942 31.8693L18.8458 33.4903L19.7025 31.8439L18.8154 31.3823ZM15.8638 26.0884L16.7372 25.6014L15.182 22.8121L14.8686 25.9902L15.8638 26.0884ZM14.9116 35.7432L14.984 36.7405L15.8241 36.6796L15.9068 35.8413L14.9116 35.7432ZM4.15234 36.5239L3.15681 36.4295L3.04518 37.6069L4.22472 37.5213L4.15234 36.5239ZM6.86624 9.60469L16.2354 8.97627L16.1015 6.98076L6.73239 7.60918L6.86624 9.60469ZM15.3167 8.50239L17.8113 12.5585L19.5149 11.5108L17.0203 7.45464L15.3167 8.50239ZM19.5948 12.3979L21.7847 6.7802L19.9213 6.05378L17.7314 11.6715L19.5948 12.3979ZM20.8781 7.41668L26.9528 7.26433L26.9027 5.26496L20.828 5.41731L20.8781 7.41668ZM25.9501 6.4749L33.1293 39.8572L35.0846 39.4367L27.9054 6.0544L25.9501 6.4749ZM34.2044 38.6517L23.1214 37.5663L22.9265 39.5568L34.0095 40.6422L34.2044 38.6517ZM24.0086 38.387L21.99 26.9993L20.0207 27.3484L22.0393 38.7361L24.0086 38.387ZM20.1183 26.7122L17.9283 30.9207L19.7025 31.8439L21.8925 27.6354L20.1183 26.7122ZM19.6888 30.8953L16.7372 25.6014L14.9904 26.5754L17.942 31.8693L19.6888 30.8953ZM14.8686 25.9902L13.9164 35.645L15.9068 35.8413L16.8589 26.1865L14.8686 25.9902ZM14.8392 34.7458L4.07997 35.5265L4.22472 37.5213L14.984 36.7405L14.8392 34.7458ZM5.14788 36.6183L7.79485 8.70133L5.80378 8.51254L3.15681 36.4295L5.14788 36.6183ZM41.6099 40.5801L41.6652 41.5785L42.6531 41.5238L42.6089 40.5353L41.6099 40.5801ZM33.0215 41.0562L32.0217 41.0785L32.0448 42.1118L33.0768 42.0546L33.0215 41.0562ZM32.5645 20.623L33.5642 20.6007L33.5369 19.3817L32.3468 19.647L32.5645 20.623ZM29.7461 21.2515L28.7654 21.0561L28.4655 22.5616L29.9637 22.2275L29.7461 21.2515ZM30.6792 16.5669L30.2925 15.6447L29.8023 15.8502L29.6985 16.3715L30.6792 16.5669ZM40.353 12.5107L41.352 12.466L41.2879 11.0344L39.9664 11.5885L40.353 12.5107ZM35.3638 0.970703V-0.0292969H35.3189L35.2742 -0.0252813L35.3638 0.970703ZM37.687 1.42773L37.2612 2.33255L37.2718 2.33754L37.2825 2.34227L37.687 1.42773ZM39.3057 2.51318L38.5881 3.20966L38.5933 3.21501L38.5986 3.22029L39.3057 2.51318ZM40.1626 3.61768L41.0764 3.21154L41.0705 3.19815L41.0641 3.18494L40.1626 3.61768ZM39.9912 6.64551L40.9132 7.03275L40.9159 7.02626L39.9912 6.64551ZM37.9346 9.08301L38.0866 10.0714L38.1193 10.0664L38.1515 10.0592L37.9346 9.08301ZM32.0884 5.56006H31.0884V5.61917L31.0953 5.67788L32.0884 5.56006ZM32.8691 2.53223L31.9994 2.03859L31.9944 2.04759L32.8691 2.53223ZM41.5545 39.5816L32.9661 40.0577L33.0768 42.0546L41.6652 41.5785L41.5545 39.5816ZM34.0212 41.0338L33.5642 20.6007L31.5647 20.6454L32.0217 41.0785L34.0212 41.0338ZM32.3468 19.647L29.5285 20.2754L29.9637 22.2275L32.7821 21.5991L32.3468 19.647ZM30.7268 21.4468L31.6599 16.7622L29.6985 16.3715L28.7654 21.0561L30.7268 21.4468ZM31.0659 17.4891L40.7397 13.433L39.9664 11.5885L30.2925 15.6447L31.0659 17.4891ZM39.354 12.5555L40.6109 40.6248L42.6089 40.5353L41.352 12.466L39.354 12.5555ZM35.3638 1.9707C36.155 1.9707 36.7769 2.10463 37.2612 2.33255L38.1128 0.522916C37.3022 0.141468 36.3752 -0.0292969 35.3638 -0.0292969V1.9707ZM37.2825 2.34227C37.8482 2.59249 38.2745 2.88656 38.5881 3.20966L40.0232 1.81671C39.499 1.27653 38.8461 0.846964 38.0915 0.513199L37.2825 2.34227ZM38.5986 3.22029C38.9844 3.60617 39.1797 3.88096 39.2611 4.05041L41.0641 3.18494C40.8408 2.71962 40.4648 2.25809 40.0128 1.80608L38.5986 3.22029ZM39.2488 4.02381C39.3397 4.2284 39.3911 4.46312 39.3911 4.74121H41.3911C41.3911 4.2068 41.2902 3.6925 41.0764 3.21154L39.2488 4.02381ZM39.3911 4.74121C39.3911 5.21725 39.2896 5.72295 39.0665 6.26476L40.9159 7.02626C41.226 6.27314 41.3911 5.50932 41.3911 4.74121H39.3911ZM39.0692 6.25828C38.8351 6.81562 38.5601 7.2731 38.2518 7.64302L39.7882 8.92339C40.2417 8.37925 40.6141 7.74493 40.9132 7.03274L39.0692 6.25828ZM38.2518 7.64302C37.9234 8.03711 37.7396 8.10193 37.7176 8.10682L38.1515 10.0592C38.8151 9.91174 39.3549 9.44336 39.7882 8.92339L38.2518 7.64302ZM37.7825 8.09464C37.1327 8.19461 36.6996 8.23535 36.4492 8.23535V10.2354C36.859 10.2354 37.4161 10.1745 38.0866 10.0714L37.7825 8.09464ZM36.4492 8.23535C35.7266 8.23535 35.1474 8.10955 34.6842 7.89213L33.8344 9.7026C34.6153 10.0692 35.496 10.2354 36.4492 10.2354V8.23535ZM34.6842 7.89213C34.2241 7.67618 33.8728 7.37161 33.6089 6.97117L31.939 8.0718C32.4114 8.78855 33.0503 9.33457 33.8344 9.7026L34.6842 7.89213ZM33.6089 6.97117C33.3367 6.55821 33.1543 6.05663 33.0814 5.44224L31.0953 5.67788C31.2002 6.56154 31.4748 7.36757 31.939 8.0718L33.6089 6.97117ZM33.0884 5.56006C33.0884 4.64967 33.3059 3.80727 33.7439 3.01687L31.9944 2.04759C31.3913 3.13609 31.0884 4.31224 31.0884 5.56006H33.0884ZM33.7388 3.02583C34.1007 2.38824 34.6307 2.04063 35.4533 1.96669L35.2742 -0.0252813C33.8371 0.1039 32.704 0.79731 31.9995 2.03862L33.7388 3.02583ZM62.4238 22.4893L62.0796 23.4281L62.2463 23.4893H62.4238V22.4893ZM59.6436 21.6133L59.3448 22.5677L59.3547 22.5707L59.6436 21.6133ZM55.7207 20.4326L55.4432 21.3933L55.446 21.3941L55.7207 20.4326ZM47.7607 19.2139L47.2537 18.3519L47.2041 18.3811L47.1581 18.4158L47.7607 19.2139ZM48.6938 22.1274L48.349 23.0661L48.3575 23.0692L48.6938 22.1274ZM53.2261 23.1177L53.1055 24.1105L53.1173 24.1117L53.2261 23.1177ZM59.1294 24.8315L58.6246 25.6948L58.6278 25.6966L59.1294 24.8315ZM62.4048 27.8975L61.5383 28.3966L61.5407 28.4007L62.4048 27.8975ZM62.8999 33.877L63.8044 34.3035L63.8092 34.2931L62.8999 33.877ZM50.5601 38.1807L50.7343 37.1959L50.7259 37.1945L50.5601 38.1807ZM46.4277 37.2666L46.6963 36.3033L46.6901 36.3016L46.4277 37.2666ZM38.0869 34.6577L37.1859 34.2239L36.6902 35.2534L37.7763 35.6083L38.0869 34.6577ZM39.3438 32.1821L40.2287 32.6479L40.2312 32.6431L39.3438 32.1821ZM40.8291 29.3257L41.7162 29.7874L41.7211 29.7778L40.8291 29.3257ZM41.5337 27.8022L42.2151 27.0704L40.5337 25.5049V27.8022H41.5337ZM42.9048 28.6401L42.5371 29.5701L42.55 29.5752L42.563 29.5799L42.9048 28.6401ZM45.3232 29.3828L45.0562 30.3465L45.063 30.3484L45.0699 30.3502L45.3232 29.3828ZM47.7607 30.1445L47.3821 31.0701L47.3974 31.0763L47.4128 31.082L47.7607 30.1445ZM53.9116 30.5825L54.1303 31.5583L54.1383 31.5565L54.1463 31.5546L53.9116 30.5825ZM55.0923 30.1445L56.0061 30.5507L56.0923 30.3567V30.1445H55.0923ZM53.3975 29.1733L53.1141 30.1324L53.127 30.1361L53.3975 29.1733ZM49.646 28.4116L49.7734 27.4198L49.7658 27.4188L49.7582 27.4179L49.646 28.4116ZM44.8853 27.269L44.5333 28.2051L44.5423 28.2084L44.8853 27.269ZM40.1245 16.4146L41.0318 16.8352L41.0346 16.8289L40.1245 16.4146ZM43.3237 13.0249L43.7645 13.9225L43.7709 13.9193L43.3237 13.0249ZM65.3945 15.9385L66.3007 16.3614L66.7787 15.3371L65.7038 14.9875L65.3945 15.9385ZM64.3472 18.376L65.2663 18.7699L65.2676 18.7669L64.3472 18.376ZM62.7681 21.5504C62.3538 21.3985 61.3957 21.0974 59.9324 20.6559L59.3547 22.5707C60.8368 23.0178 61.7321 23.3007 62.0796 23.4281L62.7681 21.5504ZM59.9423 20.6589C58.4764 20.2001 57.1606 19.804 55.9954 19.4711L55.446 21.3941C56.5914 21.7214 57.8908 22.1124 59.3448 22.5676L59.9423 20.6589ZM55.9982 19.4719C54.8316 19.1349 53.5471 18.8123 52.1462 18.5039L51.7161 20.4571C53.0827 20.758 54.3247 21.0702 55.4432 21.3933L55.9982 19.4719ZM52.1462 18.5039C50.7397 18.1942 49.5771 18.0234 48.6938 18.0234V20.0234C49.3595 20.0234 50.3551 20.1574 51.7161 20.4571L52.1462 18.5039ZM48.6938 18.0234C48.209 18.0234 47.6909 18.0947 47.2537 18.3519L48.2678 20.0758C48.2589 20.081 48.2809 20.0661 48.3558 20.0508C48.4303 20.0357 48.5403 20.0234 48.6938 20.0234V18.0234ZM47.1581 18.4158C46.5094 18.9057 45.8276 19.6002 45.8276 20.5088H47.8276C47.8276 20.5844 47.7969 20.579 47.8722 20.4745C47.9489 20.3681 48.0986 20.2118 48.3633 20.0119L47.1581 18.4158ZM45.8276 20.5088C45.8276 21.1962 46.1841 21.7409 46.639 22.1354C47.0802 22.5181 47.674 22.8181 48.349 23.0661L49.0387 21.1888C48.4695 20.9797 48.1303 20.7814 47.9494 20.6246C47.7822 20.4796 47.8276 20.4434 47.8276 20.5088H45.8276ZM48.3575 23.0692C49.6911 23.5455 51.2787 23.8886 53.1055 24.1104L53.3466 22.125C51.6188 21.9152 50.1849 21.5981 49.0302 21.1857L48.3575 23.0692ZM53.1173 24.1117C55.4688 24.3689 57.2872 24.9127 58.6246 25.6948L59.6342 23.9683C57.9755 22.9984 55.8584 22.3996 53.3348 22.1236L53.1173 24.1117ZM58.6278 25.6966C60.0307 26.5101 60.9751 27.419 61.5383 28.3966L63.2713 27.3983C62.4888 26.04 61.2496 24.905 59.631 23.9664L58.6278 25.6966ZM61.5407 28.4007C62.1334 29.4185 62.4141 30.4334 62.4141 31.4585H64.4141C64.4141 30.0461 64.0219 28.687 63.2689 27.3942L61.5407 28.4007ZM62.4141 31.4585C62.4141 32.1852 62.2707 32.8487 61.9906 33.4608L63.8092 34.2931C64.2146 33.4072 64.4141 32.4583 64.4141 31.4585H62.4141ZM61.9954 33.4504C61.3421 34.836 60.4084 35.8434 59.1931 36.5152C57.9661 37.1935 56.3934 37.5615 54.4258 37.5615V39.5615C56.635 39.5615 58.5629 39.1488 60.1607 38.2656C61.7701 37.3759 62.9851 36.041 63.8044 34.3035L61.9954 33.4504ZM54.4258 37.5615C53.355 37.5615 52.1262 37.4423 50.7343 37.196L50.3858 39.1654C51.863 39.4268 53.2114 39.5615 54.4258 39.5615V37.5615ZM50.7259 37.1945C49.3238 36.9588 47.9808 36.6615 46.6963 36.3033L46.1591 38.2299C47.5153 38.608 48.9271 38.9201 50.3942 39.1668L50.7259 37.1945ZM46.6901 36.3016C45.4002 35.951 44.0194 35.5368 42.5472 35.0587L41.9294 36.9609C43.4279 37.4476 44.84 37.8713 46.1654 38.2316L46.6901 36.3016ZM42.5472 35.0587C41.0623 34.5764 39.6791 34.1259 38.3975 33.7072L37.7763 35.6083C39.0592 36.0274 40.4436 36.4783 41.9294 36.9609L42.5472 35.0587ZM38.9879 35.0915C39.3111 34.4202 39.7243 33.6063 40.2287 32.6479L38.4588 31.7164C37.9476 32.6877 37.5228 33.5241 37.1859 34.2239L38.9879 35.0915ZM40.2312 32.6431C40.7388 31.6658 41.2338 30.7139 41.7161 29.7874L39.9421 28.8639C39.4595 29.791 38.9643 30.7434 38.4563 31.7211L40.2312 32.6431ZM41.7211 29.7778C41.9576 29.3111 42.1402 28.9398 42.2652 28.6695C42.327 28.5358 42.3804 28.4148 42.4202 28.3137C42.4397 28.264 42.4614 28.2056 42.4796 28.1454C42.4886 28.116 42.5337 27.9743 42.5337 27.8022H40.5337C40.5337 27.7106 40.5472 27.6426 40.5519 27.6203C40.558 27.5909 40.5639 27.5711 40.5657 27.565C40.5693 27.5532 40.5689 27.5563 40.5591 27.5812C40.5402 27.6292 40.5055 27.7098 40.4499 27.83C40.3401 28.0675 40.1703 28.4135 39.9371 28.8736L41.7211 29.7778ZM40.8523 28.5341C41.3256 28.9749 41.8943 29.3159 42.5371 29.5701L43.2724 27.7102C42.8235 27.5327 42.4781 27.3152 42.2151 27.0704L40.8523 28.5341ZM42.563 29.5799C43.1586 29.7965 43.9944 30.0523 45.0562 30.3465L45.5903 28.4191C44.5447 28.1294 43.7681 27.89 43.2465 27.7003L42.563 29.5799ZM45.0699 30.3502C46.1223 30.6258 46.8847 30.8666 47.3821 31.0701L48.1394 29.219C47.5196 28.9654 46.657 28.6984 45.5766 28.4154L45.0699 30.3502ZM47.4128 31.082C48.7562 31.5806 50.1499 31.8301 51.5884 31.8301V29.8301C50.3862 29.8301 49.2282 29.6225 48.1087 29.207L47.4128 31.082ZM51.5884 31.8301C52.4689 31.8301 53.317 31.7406 54.1303 31.5583L53.6929 29.6067C53.0336 29.7545 52.3329 29.8301 51.5884 29.8301V31.8301ZM54.1463 31.5546C54.5276 31.4626 54.8548 31.3708 55.1068 31.2773C55.2304 31.2315 55.3682 31.1735 55.4953 31.0991C55.5745 31.0527 55.8563 30.8877 56.0061 30.5507L54.1785 29.7384C54.2498 29.5779 54.3468 29.4826 54.3901 29.4439C54.4384 29.4007 54.4759 29.3784 54.4845 29.3733C54.5006 29.3639 54.4845 29.375 54.4112 29.4022C54.2697 29.4547 54.032 29.5247 53.677 29.6104L54.1463 31.5546ZM56.0923 30.1445C56.0923 29.7559 55.9212 29.4506 55.743 29.2444C55.5712 29.0455 55.3604 28.8981 55.1658 28.7865C54.7765 28.5635 54.2596 28.3768 53.6679 28.2106L53.127 30.1361C53.6652 30.2872 53.9957 30.4212 54.1714 30.5218C54.2592 30.5722 54.2603 30.5874 54.2297 30.552C54.1927 30.5092 54.0923 30.3681 54.0923 30.1445H56.0923ZM53.6808 28.2143C52.5038 27.8666 51.2 27.603 49.7734 27.4198L49.5186 29.4035C50.8596 29.5757 52.0568 29.82 53.1141 30.1324L53.6808 28.2143ZM49.7582 27.4179C48.2684 27.2497 46.7588 26.8885 45.2282 26.3297L44.5423 28.2084C46.2109 28.8176 47.8751 29.218 49.5338 29.4053L49.7582 27.4179ZM45.2372 26.333C43.7787 25.7846 42.5529 24.9927 41.5441 23.961L40.1141 25.3593C41.3397 26.6127 42.818 27.5601 44.5333 28.2051L45.2372 26.333ZM41.5441 23.961C40.6193 23.0152 40.1533 21.8612 40.1533 20.4326H38.1533C38.1533 22.3556 38.8046 24.02 40.1141 25.3593L41.5441 23.961ZM40.1533 20.4326C40.1533 19.3219 40.4333 18.1259 41.0317 16.8352L39.2173 15.9939C38.5208 17.4962 38.1533 18.9789 38.1533 20.4326H40.1533ZM41.0346 16.8289C41.6583 15.4591 42.5681 14.5101 43.7645 13.9225L42.8829 12.1273C41.2357 12.9362 40.0126 14.2469 39.2144 16.0002L41.0346 16.8289ZM43.7709 13.9193C45.024 13.2928 46.5647 12.9585 48.4272 12.9585V10.9585C46.3289 10.9585 44.4672 11.3352 42.8765 12.1305L43.7709 13.9193ZM48.4272 12.9585C50.6172 12.9585 52.8854 13.2687 55.2342 13.8958L55.7502 11.9635C53.2494 11.2958 50.8076 10.9585 48.4272 10.9585V12.9585ZM55.2342 13.8958C57.6337 14.5365 60.9149 15.5331 65.0853 16.8894L65.7038 14.9875C61.5206 13.627 58.2003 12.6178 55.7502 11.9635L55.2342 13.8958ZM64.4883 15.5156C64.3899 15.7265 64.0311 16.5623 63.4268 17.985L65.2676 18.7669C65.882 17.3205 66.2214 16.5313 66.3007 16.3614L64.4883 15.5156ZM63.428 17.9821C62.8192 19.4027 62.3667 20.4331 62.0681 21.08L63.884 21.9181C64.1948 21.2447 64.6564 20.193 65.2663 18.7699L63.428 17.9821ZM62.0681 21.08C61.9186 21.4039 61.8092 21.6236 61.7361 21.7546C61.6972 21.8244 61.6845 21.8401 61.694 21.8274C61.6967 21.8238 61.7302 21.7781 61.7921 21.7236C61.8239 21.6956 61.8844 21.6461 61.9721 21.6001C62.0568 21.5556 62.2143 21.4893 62.4238 21.4893V23.4893C62.8211 23.4893 63.0719 23.2615 63.1145 23.224C63.1998 23.1488 63.2604 23.0722 63.294 23.0274C63.3655 22.9321 63.4297 22.824 63.4829 22.7288C63.5939 22.5297 63.7288 22.2543 63.884 21.9181L62.0681 21.08ZM80.4385 6.74072L80.1246 5.79126L79.0271 6.15406L79.5441 7.18794L80.4385 6.74072ZM84.7612 5.33154L84.4584 4.3785L84.4558 4.37933L84.7612 5.33154ZM89.0459 4.11279L89.2923 5.08199L89.3 5.07997L89.0459 4.11279ZM93.3496 3.17969L93.514 4.16608L93.5159 4.16576L93.3496 3.17969ZM100.205 3.06543L100.393 2.08314L100.38 2.08087L100.205 3.06543ZM102.643 3.86523L102.207 4.7656L102.213 4.76837L102.643 3.86523ZM104.699 5.35059L103.978 6.04281L103.985 6.05033L103.992 6.05769L104.699 5.35059ZM106.185 7.52148L107.098 7.11533L107.095 7.10768L106.185 7.52148ZM104.071 13.8628L103.271 13.2628L103.268 13.2659L104.071 13.8628ZM99.3862 19.3091L98.6849 18.5962L98.682 18.5991L99.3862 19.3091ZM95.8823 22.6416L95.2265 21.8867L94.7461 22.304L94.9207 22.9159L95.8823 22.6416ZM99.3101 34.6577L99.8951 35.4687L100.464 35.0582L100.272 34.3834L99.3101 34.6577ZM94.3208 38.2568L93.377 38.5873L93.8196 39.8514L94.9058 39.0678L94.3208 38.2568ZM85.5801 13.2915L86.5239 12.9611L86.2895 12.2915H85.5801V13.2915ZM84.3613 14.6055L83.6192 13.9352L83.618 13.9365L84.3613 14.6055ZM83.7139 15.3101V16.3101H84.1281L84.421 16.0172L83.7139 15.3101ZM83.333 14.4912L82.3958 14.8399L82.3993 14.8494L82.403 14.8589L83.333 14.4912ZM82.4951 12.2251L81.5515 12.556L81.5541 12.5634L81.5568 12.5708L82.4951 12.2251ZM81.3335 8.98779L82.2727 8.64442L82.2706 8.63886L81.3335 8.98779ZM92.7593 12.0347L92.1664 11.2294L91.6112 11.6382L91.7958 12.3025L92.7593 12.0347ZM94.3208 17.6523L93.3573 17.9202L93.8205 19.5864L95.0335 18.3538L94.3208 17.6523ZM98.7007 10.9492L98.4837 11.9254L98.5 11.929L98.5164 11.9321L98.7007 10.9492ZM80.7523 7.69019C82.2861 7.18318 83.7241 6.71438 85.0667 6.28376L84.4558 4.37933C83.1069 4.81199 81.6632 5.28265 80.1246 5.79126L80.7523 7.69019ZM85.0641 6.28459C86.4023 5.85934 87.8116 5.4584 89.2923 5.08196L88.7995 3.14362C87.2841 3.52891 85.8369 3.94046 84.4584 4.3785L85.0641 6.28459ZM89.3 5.07997C90.7717 4.69333 92.1763 4.38904 93.514 4.16608L93.1852 2.19329C91.7808 2.42737 90.3162 2.74515 88.7918 3.14561L89.3 5.07997ZM93.5159 4.16576C94.5129 3.9976 95.5363 3.91309 96.5869 3.91309V1.91309C95.4286 1.91309 94.2938 2.00631 93.1833 2.19362L93.5159 4.16576ZM96.5869 3.91309C98.4464 3.91309 99.5613 3.96665 100.03 4.04999L100.38 2.08087C99.7063 1.96108 98.409 1.91309 96.5869 1.91309V3.91309ZM100.017 4.04764C100.798 4.19694 101.527 4.43683 102.207 4.76558L103.078 2.96489C102.234 2.55731 101.338 2.264 100.393 2.08322L100.017 4.04764ZM102.213 4.76837C102.878 5.08424 103.464 5.5077 103.978 6.04281L105.421 4.65836C104.741 3.94933 103.956 3.38256 103.072 2.9621L102.213 4.76837ZM103.992 6.05769C104.511 6.57666 104.94 7.19908 105.274 7.93529L107.095 7.10768C106.668 6.1681 106.106 5.34326 105.406 4.64348L103.992 6.05769ZM105.271 7.92762C105.365 8.14053 105.413 8.36378 105.413 8.60693H107.413C107.413 8.08837 107.308 7.58798 107.098 7.11535L105.271 7.92762ZM105.413 8.60693C105.413 9.69567 104.797 11.2284 103.271 13.2628L104.871 14.4628C106.468 12.3331 107.413 10.362 107.413 8.60693H105.413ZM103.268 13.2659C101.745 15.3137 100.217 17.089 98.6849 18.5963L100.088 20.0219C101.704 18.4315 103.299 16.576 104.873 14.4597L103.268 13.2659ZM98.682 18.5991C97.1227 20.1458 95.9744 21.2369 95.2265 21.8867L96.5382 23.3965C97.3391 22.7006 98.5267 21.5701 100.09 20.0191L98.682 18.5991ZM94.9207 22.9159L98.3484 34.932L100.272 34.3834L96.844 22.3673L94.9207 22.9159ZM98.725 33.8467L93.7358 37.4458L94.9058 39.0678L99.8951 35.4687L98.725 33.8467ZM95.2646 37.9264L86.5239 12.9611L84.6363 13.622L93.377 38.5873L95.2646 37.9264ZM85.5801 12.2915C85.3971 12.2915 85.2593 12.3416 85.1994 12.3658C85.1291 12.3942 85.0753 12.4251 85.0435 12.4446C84.9803 12.4833 84.9318 12.5221 84.9063 12.5432C84.8517 12.5883 84.8013 12.637 84.7635 12.6749C84.6832 12.7551 84.5844 12.862 84.473 12.9865L85.9635 14.3201C86.0679 14.2034 86.1373 14.1294 86.1777 14.0891C86.2001 14.0666 86.1982 14.0701 86.1801 14.0851C86.1728 14.0911 86.1396 14.1185 86.0887 14.1498C86.063 14.1655 86.0146 14.1935 85.949 14.22C85.9151 14.2337 85.8684 14.2504 85.8113 14.2641C85.7551 14.2776 85.6758 14.2915 85.5801 14.2915V12.2915ZM84.473 12.9865C84.2587 13.2261 83.9742 13.5422 83.6192 13.9352L85.1034 15.2758C85.4594 14.8817 85.7462 14.563 85.9635 14.3201L84.473 12.9865ZM83.618 13.9365C83.2685 14.3249 83.0728 14.537 83.0068 14.603L84.421 16.0172C84.5327 15.9054 84.7687 15.6477 85.1046 15.2744L83.618 13.9365ZM83.7139 14.3101C84.0014 14.3101 84.1998 14.4326 84.2756 14.4851C84.3632 14.5459 84.4198 14.6069 84.4447 14.6351C84.4958 14.6928 84.523 14.7392 84.5244 14.7415C84.5322 14.7544 84.5241 14.7424 84.4968 14.6836C84.4461 14.5746 84.3691 14.3919 84.263 14.1236L82.403 14.8589C82.5128 15.1364 82.6071 15.3632 82.6834 15.5271C82.7195 15.6048 82.7638 15.6951 82.8129 15.7763C82.8349 15.8127 82.88 15.8846 82.9461 15.9595C82.9785 15.9962 83.042 16.0635 83.1358 16.1286C83.2177 16.1854 83.4216 16.3101 83.7139 16.3101V14.3101ZM84.2702 14.1425C84.0677 13.5981 83.7888 12.8439 83.4335 11.8794L81.5568 12.5708C81.9124 13.536 82.1921 14.2926 82.3958 14.8399L84.2702 14.1425ZM83.4388 11.8942C83.0943 10.9117 82.7056 9.8284 82.2727 8.64443L80.3943 9.33116C80.8247 10.5085 81.2104 11.5834 81.5515 12.556L83.4388 11.8942ZM82.2706 8.63886C81.8324 7.46198 81.5144 6.65649 81.3329 6.29351L79.5441 7.18794C79.6672 7.43433 79.9459 8.12688 80.3963 9.33673L82.2706 8.63886ZM91.7958 12.3025L93.3573 17.9202L95.2843 17.3845L93.7227 11.7669L91.7958 12.3025ZM95.0335 18.3538C95.8459 17.5283 96.8418 16.415 98.0176 15.022L96.4892 13.732C95.3291 15.1065 94.3699 16.1768 93.6081 16.9509L95.0335 18.3538ZM98.0176 15.022C98.6207 14.3074 99.099 13.6613 99.4316 13.0901C99.7475 12.5475 100.005 11.9513 100.005 11.3682H98.0054C98.0054 11.368 98.0054 11.3721 98.0044 11.3809C98.0035 11.3897 98.0016 11.4026 97.9981 11.4198C97.991 11.4549 97.9778 11.5038 97.9548 11.5679C97.908 11.6982 97.8283 11.8689 97.7032 12.0837C97.4518 12.5155 97.0541 13.0627 96.4892 13.732L98.0176 15.022ZM100.005 11.3682C100.005 11.1178 99.9537 10.791 99.7379 10.4943C99.5083 10.1786 99.185 10.0226 98.885 9.96635L98.5164 11.9321C98.4195 11.9139 98.2485 11.8468 98.1205 11.6707C98.0063 11.5137 98.0054 11.3773 98.0054 11.3682H100.005ZM98.9176 9.97303C98.2785 9.831 97.6408 9.75879 97.0059 9.75879V11.7588C97.4881 11.7588 97.9803 11.8135 98.4837 11.9254L98.9176 9.97303ZM97.0059 9.75879C95.1538 9.75879 93.5211 10.232 92.1664 11.2294L93.3522 12.8399C94.308 12.1362 95.5063 11.7588 97.0059 11.7588V9.75879ZM120.714 16.3765L120.236 17.2548L120.242 17.2581L120.714 16.3765ZM122.904 18.3379L122.076 18.8985L122.081 18.9058L122.086 18.9131L122.904 18.3379ZM124.142 21.0991L123.171 21.3388L123.173 21.3459L123.175 21.353L124.142 21.0991ZM124.313 26.9263L123.329 26.75L123.328 26.7571L123.327 26.7643L124.313 26.9263ZM122.828 31.0776L122.006 30.5084L122.002 30.5146L121.997 30.5209L122.828 31.0776ZM117.458 36.2573L117.938 37.1348L117.947 37.1298L117.458 36.2573ZM114.621 37.3999L114.372 36.4313L114.364 36.4333L114.356 36.4354L114.621 37.3999ZM108.774 37.2666L109.105 36.3229L109.098 36.3204L108.774 37.2666ZM106.299 35.9526L105.659 36.7216L105.668 36.7283L105.676 36.7349L106.299 35.9526ZM103.652 32.1631L102.722 32.5319L102.723 32.5345L103.652 32.1631ZM105.347 19.6899L106.076 20.3745L106.076 20.3737L105.347 19.6899ZM110.031 16.0527L110.481 16.9458L110.487 16.9429L110.031 16.0527ZM117.839 15.1958L117.571 16.1594L117.584 16.1627L117.839 15.1958ZM119.591 19.5757L120.552 19.301L118.615 19.3574L119.591 19.5757ZM118.182 22.1274L117.468 21.4265L117.462 21.4328L118.182 22.1274ZM115.173 22.9653L114.548 23.7462L114.582 23.7733L114.618 23.7974L115.173 22.9653ZM115.173 19.6328L114.349 19.0655L114.345 19.0718L114.341 19.0781L115.173 19.6328ZM117.02 18.2808L117.387 19.2112L117.02 17.2808V18.2808ZM114.583 18.7568L114.209 17.8294L114.203 17.8315L114.583 18.7568ZM112.583 19.9946L113.246 20.743L113.256 20.7346L112.583 19.9946ZM111.231 21.6895L110.351 21.2143L110.348 21.2207L111.231 21.6895ZM112.374 26.3931L111.835 27.2355L111.836 27.2363L112.374 26.3931ZM117.667 26.4692L118.317 27.2295L118.325 27.2227L117.667 26.4692ZM119.267 24.146L120.198 24.5109L120.2 24.5066L119.267 24.146ZM120.242 17.2581C121.005 17.6661 121.611 18.2112 122.076 18.8985L123.732 17.7773C123.08 16.8142 122.227 16.0517 121.186 15.4948L120.242 17.2581ZM122.086 18.9131C122.582 19.6176 122.945 20.4228 123.171 21.3388L125.113 20.8594C124.831 19.7188 124.37 18.6832 123.722 17.7627L122.086 18.9131ZM123.175 21.353C123.419 22.2816 123.542 23.2561 123.542 24.2793H125.542C125.542 23.0936 125.399 21.9479 125.109 20.8452L123.175 21.353ZM123.542 24.2793C123.542 25.1376 123.47 25.9608 123.329 26.75L125.298 27.1026C125.461 26.1906 125.542 25.2491 125.542 24.2793H123.542ZM123.327 26.7643C123.195 27.5637 123.012 28.2852 122.781 28.9322L124.665 29.6049C124.942 28.83 125.152 27.99 125.3 27.0883L123.327 26.7643ZM122.781 28.9322C122.55 29.5805 122.288 30.1009 122.006 30.5084L123.65 31.6468C124.054 31.0642 124.389 30.3785 124.665 29.6049L122.781 28.9322ZM121.997 30.5209C121.233 31.6609 120.424 32.6302 119.571 33.4356L120.944 34.8896C121.919 33.9685 122.823 32.8811 123.659 31.6344L121.997 30.5209ZM119.571 33.4356C118.708 34.2508 117.84 34.8973 116.969 35.3848L117.947 37.1298C118.98 36.5509 119.979 35.801 120.944 34.8896L119.571 33.4356ZM116.978 35.3799C116.091 35.8652 115.222 36.2131 114.372 36.4313L114.869 38.3685C115.898 38.1043 116.921 37.6905 117.938 37.1348L116.978 35.3799ZM114.356 36.4354C113.511 36.667 112.68 36.7808 111.859 36.7808V38.7808C112.867 38.7808 113.876 38.6406 114.885 38.3644L114.356 36.4354ZM111.859 36.7808C110.888 36.7808 109.972 36.6269 109.105 36.3229L108.444 38.2103C109.532 38.5919 110.672 38.7808 111.859 38.7808V36.7808ZM109.098 36.3204C108.224 36.0215 107.504 35.6343 106.922 35.1704L105.676 36.7349C106.464 37.3628 107.395 37.8516 108.451 38.2128L109.098 36.3204ZM106.938 35.1837C105.956 34.3668 105.163 33.2494 104.58 31.7917L102.723 32.5345C103.41 34.2506 104.382 35.6595 105.659 36.7216L106.938 35.1837ZM104.581 31.7942C103.995 30.3159 103.7 28.7529 103.7 27.0977H101.7C101.7 28.9971 102.039 30.8111 102.722 32.5319L104.581 31.7942ZM103.7 27.0977C103.7 24.2419 104.517 22.0342 106.076 20.3745L104.618 19.0053C102.647 21.1035 101.7 23.8343 101.7 27.0977H103.7ZM106.076 20.3737C107.524 18.8285 108.994 17.6951 110.481 16.9458L109.581 15.1597C107.844 16.0354 106.191 17.3268 104.617 19.0062L106.076 20.3737ZM110.487 16.9429C111.969 16.1845 113.464 15.8149 114.982 15.8149V13.8149C113.124 13.8149 111.318 14.2706 109.576 15.1626L110.487 16.9429ZM114.982 15.8149C115.886 15.8149 116.748 15.9307 117.571 16.1593L118.107 14.2323C117.102 13.9531 116.059 13.8149 114.982 13.8149V15.8149ZM117.584 16.1627C118.406 16.3797 119.29 16.7396 120.236 17.2548L121.192 15.4981C120.133 14.9215 119.1 14.4943 118.094 14.2289L117.584 16.1627ZM118.615 19.3574C118.442 20.1317 118.067 20.8172 117.468 21.4265L118.895 22.8284C119.743 21.965 120.308 20.9493 120.567 19.794L118.615 19.3574ZM117.462 21.4328C116.847 22.0698 116.392 22.2319 116.087 22.2319V24.2319C117.153 24.2319 118.094 23.6578 118.901 22.822L117.462 21.4328ZM116.087 22.2319C115.927 22.2319 115.818 22.1938 115.728 22.1333L114.618 23.7974C115.061 24.0924 115.561 24.2319 116.087 24.2319V22.2319ZM115.798 22.1845C115.762 22.1558 115.602 21.9957 115.602 21.3657H113.602C113.602 22.2592 113.822 23.1655 114.548 23.7462L115.798 22.1845ZM115.602 21.3657C115.602 21.0118 115.714 20.624 116.005 20.1875L114.341 19.0781C113.87 19.7842 113.602 20.5516 113.602 21.3657H115.602ZM115.996 20.2001C116.248 19.8351 116.679 19.4899 117.387 19.2112L116.653 17.3504C115.685 17.7318 114.885 18.288 114.349 19.0655L115.996 20.2001ZM117.02 17.2808C116.052 17.2808 115.113 17.4647 114.209 17.8294L114.956 19.6843C115.626 19.4142 116.312 19.2808 117.02 19.2808V17.2808ZM114.203 17.8315C113.333 18.1883 112.564 18.6604 111.91 19.2547L113.256 20.7346C113.719 20.3132 114.284 19.9601 114.962 19.6821L114.203 17.8315ZM111.92 19.2463C111.277 19.8163 110.751 20.4729 110.351 21.2143L112.111 22.1646C112.396 21.6364 112.772 21.1631 113.246 20.743L111.92 19.2463ZM110.348 21.2207C109.949 21.9711 109.736 22.7592 109.736 23.5747H111.736C111.736 23.1206 111.852 22.652 112.114 22.1582L110.348 21.2207ZM109.736 23.5747C109.736 25.1343 110.489 26.3749 111.835 27.2355L112.912 25.5506C112.074 25.0148 111.736 24.3764 111.736 23.5747H109.736ZM111.836 27.2363C112.962 27.9543 114.112 28.3643 115.268 28.3643V26.3643C114.596 26.3643 113.816 26.1268 112.911 25.5498L111.836 27.2363ZM115.268 28.3643C116.413 28.3643 117.442 27.9777 118.317 27.2295L117.018 25.709C116.497 26.1542 115.926 26.3643 115.268 26.3643V28.3643ZM118.325 27.2227C119.155 26.4984 119.777 25.5864 120.198 24.5109L118.336 23.7811C118.021 24.5845 117.577 25.2213 117.01 25.7158L118.325 27.2227ZM120.2 24.5066C120.608 23.4511 120.819 22.3897 120.819 21.3276H118.819C118.819 22.1191 118.663 22.9366 118.334 23.7854L120.2 24.5066ZM120.819 21.3276C120.819 20.6131 120.734 19.9353 120.552 19.301L118.629 19.8504C118.753 20.2824 118.819 20.7726 118.819 21.3276H120.819ZM121.381 5.1792L120.994 4.25698L120.504 4.46253L120.4 4.98385L121.381 5.1792ZM131.055 1.12305L132.053 1.05911L131.963 -0.342091L130.668 0.200832L131.055 1.12305ZM132.464 23.1177L131.466 23.1816L131.566 24.7496L132.944 23.9947L132.464 23.1177ZM140.424 18.7568L140.572 17.7679L140.239 17.718L139.943 17.8798L140.424 18.7568ZM148.688 19.9946L149.297 20.7882L151.167 19.3546L148.837 19.0057L148.688 19.9946ZM137.91 28.2593L137.302 27.4657L136.258 28.2659L137.308 29.0577L137.91 28.2593ZM148.06 35.9146L149.058 35.8548L149.031 35.3941L148.662 35.1162L148.06 35.9146ZM148.517 43.5508L147.933 44.3628L149.641 45.5902L149.515 43.491L148.517 43.5508ZM133.549 32.7915L134.133 31.9795L132.445 30.7661L132.551 32.8424L133.549 32.7915ZM134.025 42.1416L134.044 43.1414L135.077 43.1219L135.024 42.0908L134.025 42.1416ZM124.961 42.313L123.962 42.3647L124.012 43.3311L124.98 43.3128L124.961 42.313ZM123.247 9.23535L124.246 9.18361L124.184 8.00004L123.028 8.25963L123.247 9.23535ZM120.448 9.86377L119.467 9.66842L119.167 11.1762L120.667 10.8395L120.448 9.86377ZM121.768 6.10141L131.441 2.04526L130.668 0.200832L120.994 4.25698L121.768 6.10141ZM130.057 1.18699L131.466 23.1816L133.462 23.0537L132.053 1.05911L130.057 1.18699ZM132.944 23.9947L140.904 19.6338L139.943 17.8798L131.983 22.2407L132.944 23.9947ZM140.276 19.7458L148.54 20.9836L148.837 19.0057L140.572 17.7679L140.276 19.7458ZM148.08 19.2011L137.302 27.4657L138.519 29.0528L149.297 20.7882L148.08 19.2011ZM137.308 29.0577L147.458 36.7129L148.662 35.1162L138.512 27.4609L137.308 29.0577ZM147.062 35.9743L147.519 43.6105L149.515 43.491L149.058 35.8548L147.062 35.9743ZM149.101 42.7388L134.133 31.9795L132.966 33.6035L147.933 44.3628L149.101 42.7388ZM132.551 32.8424L133.027 42.1925L135.024 42.0908L134.548 32.7407L132.551 32.8424ZM134.006 41.1418L124.942 41.3132L124.98 43.3128L134.044 43.1414L134.006 41.1418ZM125.96 42.2612L124.246 9.18361L122.248 9.2871L123.962 42.3647L125.96 42.2612ZM123.028 8.25963L120.229 8.88805L120.667 10.8395L123.466 10.2111L123.028 8.25963ZM121.428 10.0591L122.362 5.37455L120.4 4.98385L119.467 9.66842L121.428 10.0591ZM161.942 26.4692L162.713 25.8314L161.787 24.7135L161.072 25.9768L161.942 26.4692ZM166.532 32.0107L167.477 32.3371L167.66 31.8058L167.302 31.3729L166.532 32.0107ZM163.904 34.9434L163.363 34.1019L163.36 34.1042L163.904 34.9434ZM158.991 37.0381L158.733 36.0718L158.725 36.0739L158.991 37.0381ZM148.822 37.1523L148.5 38.0992L148.503 38.1001L148.822 37.1523ZM145.794 35.1338L146.579 34.5145L146.577 34.5114L145.794 35.1338ZM144.975 23.5747L144.039 23.2222L144.038 23.2257L144.975 23.5747ZM147.184 19.6899L146.497 18.9632L146.495 18.9652L147.184 19.6899ZM150.193 17.5L149.721 16.6182L149.717 16.6205L150.193 17.5ZM161.771 16.5288L161.433 17.4699L161.442 17.4733L161.771 16.5288ZM165.599 18.7568L166.365 19.3992L166.987 18.6574L166.266 18.0118L165.599 18.7568ZM155.144 31.23L154.378 30.5876L153.001 32.23H155.144V31.23ZM157.772 30.6587L158.191 31.5667L158.197 31.5638L157.772 30.6587ZM160.076 29.002L160.79 29.7027L160.796 29.6963L160.076 29.002ZM156.667 22.0322L157.445 22.6607L158.22 21.7017L157.122 21.1415L156.667 22.0322ZM152.764 21.9751L152.368 21.0569L152.361 21.0598L152.764 21.9751ZM151.412 22.9653L152.202 23.5779L152.217 23.5587L152.231 23.5388L151.412 22.9653ZM150.821 29.2686L149.864 29.559L150.413 31.3655L151.599 29.897L150.821 29.2686ZM161.172 27.1071L165.762 32.6486L167.302 31.3729L162.713 25.8314L161.172 27.1071ZM165.586 31.6844C165.319 32.4606 164.642 33.2809 163.363 34.1019L164.444 35.7848C165.933 34.8285 167.009 33.6937 167.477 32.3371L165.586 31.6844ZM163.36 34.1042C162.093 34.9254 160.556 35.5857 158.733 36.0718L159.248 38.0043C161.234 37.4748 162.972 36.7387 164.448 35.7825L163.36 34.1042ZM158.725 36.0739C156.917 36.5715 155.115 36.8188 153.316 36.8188V38.8188C155.3 38.8188 157.281 38.5457 159.256 38.0023L158.725 36.0739ZM153.316 36.8188C151.727 36.8188 150.34 36.6081 149.141 36.2046L148.503 38.1001C149.944 38.5852 151.553 38.8188 153.316 38.8188V36.8188ZM149.144 36.2055C147.981 35.8106 147.148 35.2358 146.579 34.5145L145.009 35.7531C145.862 36.8345 147.047 37.6055 148.5 38.0992L149.144 36.2055ZM146.577 34.5114C145.515 33.1757 144.947 31.4295 144.947 29.1924H142.947C142.947 31.7795 143.61 33.9942 145.011 35.7561L146.577 34.5114ZM144.947 29.1924C144.947 27.411 145.267 25.6564 145.912 23.9237L144.038 23.2257C143.312 25.1746 142.947 27.1652 142.947 29.1924H144.947ZM145.911 23.9272C146.594 22.1142 147.266 20.9923 147.873 20.4146L146.495 18.9652C145.554 19.8602 144.753 21.3282 144.039 23.2222L145.911 23.9272ZM147.871 20.4167C148.737 19.5982 149.669 18.9204 150.669 18.3795L149.717 16.6205C148.558 17.2476 147.485 18.0297 146.497 18.9632L147.871 20.4167ZM150.665 18.3818C151.686 17.8354 152.739 17.4277 153.825 17.1562L153.34 15.2159C152.09 15.5284 150.883 15.9966 149.721 16.6182L150.665 18.3818ZM153.825 17.1562C154.912 16.8845 156.03 16.748 157.182 16.748V14.748C155.87 14.748 154.589 14.9036 153.34 15.2159L153.825 17.1562ZM157.182 16.748C158.684 16.748 160.099 16.9902 161.433 17.4698L162.109 15.5878C160.548 15.0264 158.904 14.748 157.182 14.748V16.748ZM161.442 17.4733C162.784 17.9401 163.944 18.6173 164.932 19.5019L166.266 18.0118C165.07 16.9413 163.677 16.1332 162.1 15.5843L161.442 17.4733ZM164.832 18.1145L154.378 30.5876L155.91 31.8723L166.365 19.3992L164.832 18.1145ZM155.144 32.23C156.213 32.23 157.232 32.0094 158.191 31.5667L157.353 29.7507C156.662 30.0697 155.929 30.23 155.144 30.23V32.23ZM158.197 31.5638C159.15 31.116 160.015 30.4918 160.79 29.7027L159.363 28.3012C158.741 28.934 158.069 29.4142 157.347 29.7536L158.197 31.5638ZM160.796 29.6963C161.558 28.9062 162.23 27.9925 162.813 26.9617L161.072 25.9768C160.563 26.8757 159.991 27.6505 159.357 28.3076L160.796 29.6963ZM157.122 21.1415C156.37 20.7581 155.581 20.5562 154.763 20.5562V22.5562C155.24 22.5562 155.72 22.6716 156.213 22.923L157.122 21.1415ZM154.763 20.5562C153.937 20.5562 153.136 20.7252 152.368 21.0569L153.16 22.8933C153.686 22.6664 154.218 22.5562 154.763 22.5562V20.5562ZM152.361 21.0598C151.635 21.379 151.003 21.8047 150.592 22.3919L152.231 23.5388C152.353 23.3642 152.622 23.1298 153.166 22.8904L152.361 21.0598ZM150.621 22.3528C149.706 23.5335 149.231 24.8638 149.231 26.3169H151.231C151.231 25.3325 151.543 24.4284 152.202 23.5779L150.621 22.3528ZM149.231 26.3169C149.231 26.8282 149.282 27.3254 149.387 27.8065L151.341 27.3791C151.269 27.0476 151.231 26.6943 151.231 26.3169H149.231ZM149.387 27.8065C149.485 28.2511 149.646 28.8391 149.864 29.559L151.778 28.9781C151.565 28.2761 151.422 27.7469 151.341 27.3791L149.387 27.8065ZM151.599 29.897L157.445 22.6607L155.89 21.4038L150.043 28.6401L151.599 29.897ZM181.119 15.1577L180.618 16.0233L181 16.2442L181.42 16.1111L181.119 15.1577ZM191.726 14.377L192.223 13.5093L192.22 13.508L191.726 14.377ZM197.819 22.0322L196.846 22.2639L196.849 22.2737L197.819 22.0322ZM198.619 32.4868L199.612 32.6055L199.612 32.6043L198.619 32.4868ZM197.972 37L198.031 37.9982L198.833 37.9502L198.959 37.1567L197.972 37ZM190.012 37.4761L189.013 37.4361L188.968 38.5403L190.071 38.4743L190.012 37.4761ZM187.993 22.0322L188.924 21.6666L188.919 21.6543L187.993 22.0322ZM185.841 21.2134L184.886 21.5075L184.902 21.562L184.925 21.6142L185.841 21.2134ZM186.108 22.0322L187.078 21.7907L187.076 21.7813L186.108 22.0322ZM186.946 32.1631L187.939 32.2827L187.939 32.2813L186.946 32.1631ZM186.279 37L186.339 37.9982L187.151 37.9496L187.269 37.1447L186.279 37ZM178.319 37.4761L177.32 37.4361L177.276 38.5403L178.379 38.4743L178.319 37.4761ZM176.282 22.0322L177.211 21.6626L177.208 21.6558L176.282 22.0322ZM175.901 20.7563L174.919 20.9472L174.92 20.9525L175.901 20.7563ZM174.492 22.813L173.576 22.4102L173.573 22.4191L174.492 22.813ZM174.016 24.3364L173.039 24.1195L173.037 24.1299L173.035 24.1403L174.016 24.3364ZM173.749 26.2598L172.753 26.1708L172.752 26.1797L172.752 26.1885L173.749 26.2598ZM174.016 36.2192L174.131 37.2126L175.086 37.1017L175.013 36.1435L174.016 36.2192ZM164.666 37.3047L163.675 37.4398L163.807 38.4111L164.781 38.298L164.666 37.3047ZM163.942 30.9062L162.944 30.9728L162.945 30.9799L162.945 30.9871L163.942 30.9062ZM163.923 25.8027L164.921 25.8598L164.924 25.8159L164.922 25.7719L163.923 25.8027ZM163.58 14.7007L163.454 13.7087L162.553 13.8234L162.581 14.7315L163.58 14.7007ZM171.064 13.7485L171.821 13.0949L171.47 12.6888L170.938 12.7565L171.064 13.7485ZM172.149 15.0054L171.393 15.659L171.826 16.1606L172.457 15.957L172.149 15.0054ZM181.42 16.1111C184.697 15.0737 187.015 14.5962 188.45 14.5962V12.5962C186.686 12.5962 184.117 13.1597 180.817 14.2044L181.42 16.1111ZM188.45 14.5962C189.582 14.5962 190.496 14.8274 191.231 15.2459L192.22 13.508C191.127 12.8855 189.857 12.5962 188.45 12.5962V14.5962ZM191.228 15.2446C192.215 15.8098 193.345 16.8162 194.615 18.3325L196.149 17.0484C194.803 15.4416 193.496 14.239 192.223 13.5093L191.228 15.2446ZM194.615 18.3325C195.868 19.8282 196.578 21.1372 196.847 22.2638L198.792 21.8006C198.426 20.2612 197.511 18.6757 196.149 17.0484L194.615 18.3325ZM196.849 22.2737C197.509 24.9264 197.829 27.2033 197.829 29.1162H199.829C199.829 26.9921 199.475 24.5463 198.79 21.7908L196.849 22.2737ZM197.829 29.1162C197.829 30.1392 197.762 31.2233 197.626 32.3694L199.612 32.6043C199.756 31.389 199.829 30.226 199.829 29.1162H197.829ZM197.626 32.3681C197.489 33.5183 197.275 35.0088 196.984 36.8433L198.959 37.1567C199.252 35.3096 199.47 33.7913 199.612 32.6055L197.626 32.3681ZM197.912 36.0018L189.952 36.4779L190.071 38.4743L198.031 37.9982L197.912 36.0018ZM191.011 37.516C191.037 36.8611 191.05 35.9312 191.05 34.7339H189.05C189.05 35.9233 189.037 36.8215 189.013 37.4361L191.011 37.516ZM191.05 34.7339C191.05 29.6708 190.353 25.3056 188.924 21.6667L187.062 22.3978C188.375 25.7413 189.05 29.8438 189.05 34.7339H191.05ZM188.919 21.6543C188.633 20.9544 188.274 20.3451 187.818 19.8718L186.378 21.2601C186.607 21.4977 186.845 21.8659 187.067 22.4101L188.919 21.6543ZM187.818 19.8718C187.432 19.4718 186.878 19.0327 186.184 19.0327V21.0327C186.092 21.0327 186.061 21.0022 186.109 21.0298C186.157 21.058 186.247 21.1243 186.378 21.2601L187.818 19.8718ZM186.184 19.0327C185.779 19.0327 185.343 19.1945 185.054 19.6016C184.81 19.9456 184.765 20.3383 184.765 20.623H186.765C186.765 20.5142 186.79 20.6117 186.685 20.759C186.625 20.8442 186.536 20.9228 186.426 20.9747C186.321 21.0242 186.231 21.0327 186.184 21.0327V19.0327ZM184.765 20.623C184.765 20.9211 184.798 21.2221 184.886 21.5075L186.797 20.9193C186.783 20.8746 186.765 20.7821 186.765 20.623H184.765ZM184.925 21.6142C184.984 21.749 185.057 21.9653 185.14 22.2832L187.076 21.7813C186.981 21.4136 186.876 21.084 186.757 20.8126L184.925 21.6142ZM185.138 22.2737C185.811 24.9812 186.136 27.257 186.136 29.1162H188.136C188.136 27.0399 187.776 24.593 187.078 21.7907L185.138 22.2737ZM186.136 29.1162C186.136 30.0374 186.076 31.0134 185.953 32.0449L187.939 32.2813C188.07 31.18 188.136 30.1247 188.136 29.1162H186.136ZM185.953 32.0435C185.828 33.084 185.607 34.686 185.29 36.8553L187.269 37.1447C187.586 34.9722 187.81 33.3496 187.939 32.2827L185.953 32.0435ZM186.22 36.0018L178.26 36.4779L178.379 38.4743L186.339 37.9982L186.22 36.0018ZM179.319 37.516C179.345 36.8611 179.357 35.9312 179.357 34.7339H177.357C177.357 35.9233 177.345 36.8215 177.32 37.4361L179.319 37.516ZM179.357 34.7339C179.357 29.6578 178.654 25.2907 177.211 21.6626L175.353 22.4019C176.677 25.7308 177.357 29.8315 177.357 34.7339H179.357ZM177.208 21.6558C177.068 21.3098 176.958 20.945 176.881 20.5602L174.92 20.9525C175.021 21.4564 175.166 21.9422 175.355 22.4086L177.208 21.6558ZM176.882 20.5655C176.837 20.3307 176.793 20.128 176.75 19.9745C176.731 19.9041 176.701 19.8045 176.658 19.7075C176.638 19.6644 176.594 19.5686 176.515 19.4676C176.478 19.4198 176.212 19.0708 175.71 19.0708V21.0708C175.454 21.0708 175.261 20.9733 175.149 20.8957C175.04 20.8202 174.971 20.7399 174.937 20.6955C174.869 20.6087 174.836 20.5343 174.83 20.5198C174.812 20.4799 174.811 20.4661 174.823 20.5098C174.844 20.5849 174.876 20.725 174.919 20.9472L176.882 20.5655ZM175.71 19.0708C175.465 19.0708 175.283 19.1584 175.189 19.2149C175.089 19.2739 175.02 19.338 174.98 19.3777C174.901 19.4563 174.847 19.5342 174.82 19.5761C174.76 19.6673 174.707 19.7687 174.665 19.855C174.576 20.0368 174.468 20.287 174.345 20.591L176.2 21.3406C176.318 21.0479 176.404 20.8506 176.461 20.7341C176.492 20.6713 176.5 20.6608 176.489 20.6773C176.486 20.682 176.454 20.7319 176.394 20.7919C176.364 20.8223 176.302 20.8794 176.211 20.9337C176.124 20.9855 175.949 21.0708 175.71 21.0708V19.0708ZM174.345 20.591C174.108 21.1776 173.852 21.784 173.576 22.4102L175.407 23.2157C175.69 22.5724 175.954 21.9474 176.2 21.3406L174.345 20.591ZM173.573 22.4191C173.353 22.9309 173.177 23.4997 173.039 24.1195L174.992 24.5534C175.108 24.0305 175.249 23.5837 175.411 23.2069L173.573 22.4191ZM173.035 24.1403C172.912 24.7538 172.819 25.4316 172.753 26.1708L174.745 26.3487C174.806 25.6661 174.89 25.0616 174.996 24.5325L173.035 24.1403ZM172.752 26.1885C172.699 26.9298 172.673 27.7925 172.673 28.7734H174.673C174.673 27.8247 174.698 27.0116 174.746 26.331L172.752 26.1885ZM172.673 28.7734C172.673 30.7634 172.789 33.2729 173.018 36.295L175.013 36.1435C174.785 33.148 174.673 30.6936 174.673 28.7734H172.673ZM173.9 35.2259L164.55 36.3114L164.781 38.298L174.131 37.2126L173.9 35.2259ZM165.656 37.1696C165.505 36.0593 165.366 34.9554 165.24 33.858L163.253 34.0864C163.381 35.1979 163.521 36.3157 163.675 37.4398L165.656 37.1696ZM165.24 33.858C165.114 32.7627 165.014 31.752 164.939 30.8254L162.945 30.9871C163.022 31.9394 163.125 32.9727 163.253 34.0864L165.24 33.858ZM164.94 30.8397C164.878 29.9126 164.847 28.913 164.847 27.8403H162.847C162.847 28.9512 162.879 29.9956 162.944 30.9728L164.94 30.8397ZM164.847 27.8403C164.847 27.3996 164.871 26.743 164.921 25.8598L162.924 25.7457C162.873 26.6398 162.847 27.3416 162.847 27.8403H164.847ZM164.922 25.7719L164.58 14.6698L162.581 14.7315L162.923 25.8336L164.922 25.7719ZM163.706 15.6927L171.19 14.7405L170.938 12.7565L163.454 13.7087L163.706 15.6927ZM170.307 14.4022L171.393 15.659L172.906 14.3518L171.821 13.0949L170.307 14.4022ZM172.457 15.957C174.42 15.3234 175.943 15.0342 177.062 15.0342V13.0342C175.643 13.0342 173.891 13.3924 171.842 14.0537L172.457 15.957ZM177.062 15.0342C178.285 15.0342 179.465 15.3567 180.618 16.0233L181.619 14.2921C180.182 13.4607 178.658 13.0342 177.062 13.0342V15.0342ZM214.33 16.3765L213.852 17.2548L213.858 17.2581L214.33 16.3765ZM216.52 18.3379L215.691 18.8985L215.696 18.9058L215.702 18.9131L216.52 18.3379ZM217.757 21.0991L216.786 21.3388L216.788 21.3459L216.79 21.353L217.757 21.0991ZM217.929 26.9263L216.944 26.75L216.943 26.7571L216.942 26.7643L217.929 26.9263ZM216.443 31.0776L215.621 30.5084L215.617 30.5146L215.613 30.5209L216.443 31.0776ZM211.073 36.2573L211.553 37.1348L211.562 37.1298L211.073 36.2573ZM208.236 37.3999L207.987 36.4313L207.979 36.4333L207.972 36.4354L208.236 37.3999ZM202.39 37.2666L202.721 36.3229L202.713 36.3204L202.39 37.2666ZM199.914 35.9526L199.275 36.7216L199.283 36.7283L199.291 36.7349L199.914 35.9526ZM197.267 32.1631L196.338 32.5319L196.339 32.5345L197.267 32.1631ZM198.962 19.6899L199.691 20.3745L199.692 20.3737L198.962 19.6899ZM203.646 16.0527L204.097 16.9458L204.102 16.9429L203.646 16.0527ZM211.454 15.1958L211.186 16.1594L211.199 16.1627L211.454 15.1958ZM213.206 19.5757L214.168 19.301L212.23 19.3574L213.206 19.5757ZM211.797 22.1274L211.084 21.4265L211.077 21.4328L211.797 22.1274ZM208.788 22.9653L208.163 23.7462L208.197 23.7733L208.233 23.7974L208.788 22.9653ZM208.788 19.6328L207.965 19.0655L207.96 19.0718L207.956 19.0781L208.788 19.6328ZM210.635 18.2808L211.002 19.2112L210.635 17.2808V18.2808ZM208.198 18.7568L207.824 17.8294L207.819 17.8315L208.198 18.7568ZM206.198 19.9946L206.862 20.743L206.871 20.7346L206.198 19.9946ZM204.846 21.6895L203.966 21.2143L203.963 21.2207L204.846 21.6895ZM205.989 26.3931L205.45 27.2355L205.451 27.2363L205.989 26.3931ZM211.283 26.4692L211.932 27.2295L211.94 27.2227L211.283 26.4692ZM212.882 24.146L213.813 24.5109L213.815 24.5066L212.882 24.146ZM213.858 17.2581C214.62 17.6661 215.226 18.2112 215.691 18.8985L217.348 17.7773C216.696 16.8142 215.842 16.0517 214.801 15.4948L213.858 17.2581ZM215.702 18.9131C216.197 19.6176 216.56 20.4228 216.786 21.3388L218.728 20.8594C218.447 19.7188 217.985 18.6832 217.338 17.7627L215.702 18.9131ZM216.79 21.353C217.034 22.2816 217.157 23.2561 217.157 24.2793H219.157C219.157 23.0936 219.014 21.9479 218.725 20.8452L216.79 21.353ZM217.157 24.2793C217.157 25.1376 217.086 25.9608 216.944 26.75L218.913 27.1026C219.076 26.1906 219.157 25.2491 219.157 24.2793H217.157ZM216.942 26.7643C216.811 27.5637 216.628 28.2852 216.397 28.9322L218.28 29.6049C218.557 28.83 218.767 27.99 218.915 27.0883L216.942 26.7643ZM216.397 28.9322C216.165 29.5805 215.903 30.1009 215.621 30.5084L217.266 31.6468C217.669 31.0642 218.004 30.3785 218.28 29.6049L216.397 28.9322ZM215.613 30.5209C214.849 31.6609 214.039 32.6302 213.186 33.4356L214.559 34.8896C215.535 33.9685 216.438 32.8811 217.274 31.6344L215.613 30.5209ZM213.186 33.4356C212.323 34.2508 211.455 34.8973 210.585 35.3848L211.562 37.1298C212.596 36.5509 213.594 35.801 214.559 34.8896L213.186 33.4356ZM210.594 35.3799C209.706 35.8652 208.837 36.2131 207.987 36.4313L208.485 38.3685C209.513 38.1043 210.536 37.6905 211.553 37.1348L210.594 35.3799ZM207.972 36.4354C207.127 36.667 206.295 36.7808 205.475 36.7808V38.7808C206.482 38.7808 207.492 38.6406 208.5 38.3644L207.972 36.4354ZM205.475 36.7808C204.503 36.7808 203.587 36.6269 202.721 36.3229L202.059 38.2103C203.147 38.5919 204.288 38.7808 205.475 38.7808V36.7808ZM202.713 36.3204C201.839 36.0215 201.12 35.6343 200.537 35.1704L199.291 36.7349C200.08 37.3628 201.01 37.8516 202.066 38.2128L202.713 36.3204ZM200.553 35.1837C199.571 34.3668 198.779 33.2494 198.196 31.7917L196.339 32.5345C197.025 34.2506 197.997 35.6595 199.275 36.7216L200.553 35.1837ZM198.197 31.7942C197.61 30.3159 197.315 28.7529 197.315 27.0977H195.315C195.315 28.9971 195.655 30.8111 196.338 32.5319L198.197 31.7942ZM197.315 27.0977C197.315 24.2419 198.132 22.0342 199.691 20.3745L198.233 19.0053C196.262 21.1035 195.315 23.8343 195.315 27.0977H197.315ZM199.692 20.3737C201.139 18.8285 202.609 17.6951 204.097 16.9458L203.196 15.1597C201.459 16.0354 199.806 17.3268 198.232 19.0062L199.692 20.3737ZM204.102 16.9429C205.584 16.1845 207.079 15.8149 208.598 15.8149V13.8149C206.739 13.8149 204.934 14.2706 203.191 15.1626L204.102 16.9429ZM208.598 15.8149C209.501 15.8149 210.363 15.9307 211.186 16.1593L211.722 14.2323C210.717 13.9531 209.674 13.8149 208.598 13.8149V15.8149ZM211.199 16.1627C212.021 16.3797 212.905 16.7396 213.852 17.2548L214.808 15.4981C213.748 14.9215 212.715 14.4943 211.709 14.2289L211.199 16.1627ZM212.23 19.3574C212.057 20.1317 211.682 20.8172 211.084 21.4265L212.51 22.8284C213.359 21.965 213.924 20.9493 214.182 19.794L212.23 19.3574ZM211.077 21.4328C210.462 22.0698 210.007 22.2319 209.702 22.2319V24.2319C210.768 24.2319 211.709 23.6578 212.516 22.822L211.077 21.4328ZM209.702 22.2319C209.542 22.2319 209.433 22.1938 209.343 22.1333L208.233 23.7974C208.676 24.0924 209.176 24.2319 209.702 24.2319V22.2319ZM209.413 22.1845C209.377 22.1558 209.217 21.9957 209.217 21.3657H207.217C207.217 22.2592 207.437 23.1655 208.163 23.7462L209.413 22.1845ZM209.217 21.3657C209.217 21.0118 209.329 20.624 209.62 20.1875L207.956 19.0781C207.485 19.7842 207.217 20.5516 207.217 21.3657H209.217ZM209.612 20.2001C209.863 19.8351 210.294 19.4899 211.002 19.2112L210.269 17.3504C209.3 17.7318 208.5 18.288 207.965 19.0655L209.612 20.2001ZM210.635 17.2808C209.668 17.2808 208.728 17.4647 207.824 17.8294L208.572 19.6843C209.242 19.4142 209.927 19.2808 210.635 19.2808V17.2808ZM207.819 17.8315C206.948 18.1883 206.179 18.6604 205.526 19.2547L206.871 20.7346C207.334 20.3132 207.899 19.9601 208.577 19.6821L207.819 17.8315ZM205.535 19.2463C204.892 19.8163 204.367 20.4729 203.966 21.2143L205.726 22.1646C206.011 21.6364 206.388 21.1631 206.862 20.743L205.535 19.2463ZM203.963 21.2207C203.565 21.9711 203.351 22.7592 203.351 23.5747H205.351C205.351 23.1206 205.468 22.652 205.73 22.1582L203.963 21.2207ZM203.351 23.5747C203.351 25.1343 204.104 26.3749 205.45 27.2355L206.528 25.5506C205.69 25.0148 205.351 24.3764 205.351 23.5747H203.351ZM205.451 27.2363C206.577 27.9543 207.727 28.3643 208.883 28.3643V26.3643C208.211 26.3643 207.431 26.1268 206.526 25.5498L205.451 27.2363ZM208.883 28.3643C210.028 28.3643 211.057 27.9777 211.932 27.2295L210.633 25.709C210.112 26.1542 209.542 26.3643 208.883 26.3643V28.3643ZM211.94 27.2227C212.77 26.4984 213.392 25.5864 213.813 24.5109L211.951 23.7811C211.636 24.5845 211.192 25.2213 210.625 25.7158L211.94 27.2227ZM213.815 24.5066C214.223 23.4511 214.435 22.3897 214.435 21.3276H212.435C212.435 22.1191 212.278 22.9366 211.95 23.7854L213.815 24.5066ZM214.435 21.3276C214.435 20.6131 214.349 19.9353 214.168 19.301L212.245 19.8504C212.368 20.2824 212.435 20.7726 212.435 21.3276H214.435ZM224.822 15.0054L224.065 15.659L224.503 16.1658L225.138 15.9541L224.822 15.0054ZM228.459 13.939L228.691 14.912L228.702 14.9091L228.459 13.939ZM234.648 14.377L234.146 15.2416L234.151 15.2446L234.648 14.377ZM240.742 22.0322L239.769 22.2639L239.772 22.2737L240.742 22.0322ZM241.542 32.4868L242.535 32.6055L242.535 32.6043L241.542 32.4868ZM240.895 37L240.954 37.9982L241.756 37.9502L241.882 37.1567L240.895 37ZM232.935 37.4761L231.935 37.4361L231.891 38.5403L232.994 38.4743L232.935 37.4761ZM230.916 22.0322L231.847 21.6666L231.842 21.6546L230.916 22.0322ZM227.165 22.813L226.248 22.4122L226.245 22.4191L227.165 22.813ZM226.688 24.3364L225.712 24.1195L225.71 24.1299L225.708 24.1403L226.688 24.3364ZM226.422 26.2598L225.426 26.1708L225.425 26.1797L225.424 26.1885L226.422 26.2598ZM226.688 36.2192L226.804 37.2126L227.758 37.1017L227.686 36.1435L226.688 36.2192ZM217.338 37.3047L216.348 37.4398L216.48 38.4111L217.454 38.298L217.338 37.3047ZM216.615 30.9062L215.617 30.9728L215.617 30.9799L215.618 30.9871L216.615 30.9062ZM216.596 25.8027L217.594 25.8598L217.597 25.8159L217.595 25.7719L216.596 25.8027ZM216.253 14.7007L216.127 13.7087L215.225 13.8234L215.253 14.7315L216.253 14.7007ZM223.737 13.7485L224.494 13.0949L224.143 12.6888L223.611 12.7565L223.737 13.7485ZM225.138 15.9541C226.53 15.4901 227.713 15.1441 228.691 14.9119L228.228 12.966C227.175 13.2162 225.933 13.5812 224.506 14.0567L225.138 15.9541ZM228.702 14.9091C229.648 14.6725 230.538 14.5581 231.373 14.5581V12.5581C230.355 12.5581 229.302 12.6976 228.217 12.9688L228.702 14.9091ZM231.373 14.5581C232.467 14.5581 233.38 14.7966 234.146 15.2416L235.151 13.5123C234.038 12.8656 232.768 12.5581 231.373 12.5581V14.5581ZM234.151 15.2446C235.138 15.8098 236.268 16.8162 237.538 18.3325L239.071 17.0484C237.726 15.4416 236.419 14.239 235.146 13.5093L234.151 15.2446ZM237.538 18.3325C238.791 19.8282 239.501 21.1372 239.769 22.2638L241.715 21.8006C241.348 20.2612 240.434 18.6757 239.071 17.0484L237.538 18.3325ZM239.772 22.2737C240.432 24.9264 240.751 27.2033 240.751 29.1162H242.751C242.751 26.9921 242.398 24.5463 241.713 21.7908L239.772 22.2737ZM240.751 29.1162C240.751 30.1392 240.684 31.2233 240.549 32.3694L242.535 32.6043C242.679 31.389 242.751 30.226 242.751 29.1162H240.751ZM240.549 32.3681C240.412 33.5183 240.198 35.0088 239.907 36.8433L241.882 37.1567C242.175 35.3096 242.393 33.7913 242.535 32.6055L240.549 32.3681ZM240.835 36.0018L232.875 36.4779L232.994 38.4743L240.954 37.9982L240.835 36.0018ZM233.934 37.516C233.96 36.8611 233.973 35.9312 233.973 34.7339H231.973C231.973 35.9233 231.96 36.8215 231.935 37.4361L233.934 37.516ZM233.973 34.7339C233.973 29.6708 233.276 25.3056 231.847 21.6667L229.985 22.3978C231.298 25.7413 231.973 29.8438 231.973 34.7339H233.973ZM231.842 21.6546C231.561 20.9644 231.255 20.3735 230.908 19.9383C230.579 19.5249 230.065 19.0708 229.354 19.0708V21.0708C229.152 21.0708 229.152 20.9436 229.343 21.184C229.517 21.4026 229.738 21.7924 229.99 22.4098L231.842 21.6546ZM229.354 19.0708C228.551 19.0708 227.946 19.6125 227.53 20.1323C227.086 20.6889 226.662 21.4659 226.248 22.4122L228.081 23.2138C228.467 22.332 228.808 21.7379 229.093 21.3804C229.408 20.9861 229.498 21.0708 229.354 21.0708V19.0708ZM226.245 22.4191C226.026 22.9309 225.85 23.4997 225.712 24.1195L227.665 24.5534C227.781 24.0305 227.922 23.5837 228.084 23.2069L226.245 22.4191ZM225.708 24.1403C225.585 24.7538 225.492 25.4316 225.426 26.1708L227.418 26.3487C227.479 25.6661 227.563 25.0616 227.669 24.5325L225.708 24.1403ZM225.424 26.1885C225.371 26.9298 225.346 27.7925 225.346 28.7734H227.346C227.346 27.8247 227.371 27.0116 227.419 26.331L225.424 26.1885ZM225.346 28.7734C225.346 30.7634 225.462 33.2729 225.691 36.295L227.686 36.1435C227.458 33.148 227.346 30.6936 227.346 28.7734H225.346ZM226.573 35.2259L217.223 36.3114L217.454 38.298L226.804 37.2126L226.573 35.2259ZM218.329 37.1696C218.178 36.0593 218.039 34.9554 217.913 33.858L215.926 34.0864C216.054 35.1979 216.194 36.3157 216.348 37.4398L218.329 37.1696ZM217.913 33.858C217.787 32.7627 217.687 31.752 217.611 30.8254L215.618 30.9871C215.695 31.9394 215.798 32.9727 215.926 34.0864L217.913 33.858ZM217.613 30.8397C217.551 29.9126 217.52 28.913 217.52 27.8403H215.52C215.52 28.9512 215.552 29.9956 215.617 30.9728L217.613 30.8397ZM217.52 27.8403C217.52 27.3996 217.544 26.743 217.594 25.8598L215.597 25.7457C215.546 26.6398 215.52 27.3416 215.52 27.8403H217.52ZM217.595 25.7719L217.252 14.6698L215.253 14.7315L215.596 25.8336L217.595 25.7719ZM216.379 15.6927L223.863 14.7405L223.611 12.7565L216.127 13.7087L216.379 15.6927ZM222.98 14.4022L224.065 15.659L225.579 14.3518L224.494 13.0949L222.98 14.4022ZM261.347 22.4893L261.002 23.4281L261.169 23.4893H261.347V22.4893ZM258.566 21.6133L258.268 22.5677L258.278 22.5707L258.566 21.6133ZM254.644 20.4326L254.366 21.3933L254.369 21.3941L254.644 20.4326ZM246.684 19.2139L246.177 18.3519L246.127 18.3811L246.081 18.4158L246.684 19.2139ZM247.617 22.1274L247.272 23.0661L247.28 23.0692L247.617 22.1274ZM252.149 23.1177L252.028 24.1105L252.04 24.1117L252.149 23.1177ZM258.052 24.8315L257.547 25.6948L257.551 25.6966L258.052 24.8315ZM261.328 27.8975L260.461 28.3966L260.464 28.4007L261.328 27.8975ZM261.823 33.877L262.727 34.3035L262.732 34.2931L261.823 33.877ZM249.483 38.1807L249.657 37.1959L249.649 37.1945L249.483 38.1807ZM245.351 37.2666L245.619 36.3033L245.613 36.3016L245.351 37.2666ZM237.01 34.6577L236.109 34.2239L235.613 35.2534L236.699 35.6083L237.01 34.6577ZM238.267 32.1821L239.152 32.6479L239.154 32.6431L238.267 32.1821ZM239.752 29.3257L240.639 29.7874L240.644 29.7778L239.752 29.3257ZM240.457 27.8022L241.138 27.0704L239.457 25.5049V27.8022H240.457ZM241.828 28.6401L241.46 29.5701L241.473 29.5752L241.486 29.5799L241.828 28.6401ZM244.246 29.3828L243.979 30.3465L243.986 30.3484L243.993 30.3502L244.246 29.3828ZM246.684 30.1445L246.305 31.0701L246.32 31.0763L246.336 31.082L246.684 30.1445ZM252.834 30.5825L253.053 31.5583L253.061 31.5565L253.069 31.5546L252.834 30.5825ZM254.015 30.1445L254.929 30.5507L255.015 30.3567V30.1445H254.015ZM252.32 29.1733L252.037 30.1324L252.05 30.1361L252.32 29.1733ZM248.569 28.4116L248.696 27.4198L248.689 27.4188L248.681 27.4179L248.569 28.4116ZM243.808 27.269L243.456 28.2051L243.465 28.2084L243.808 27.269ZM239.047 16.4146L239.955 16.8352L239.957 16.8289L239.047 16.4146ZM242.247 13.0249L242.687 13.9225L242.694 13.9193L242.247 13.0249ZM264.317 15.9385L265.224 16.3614L265.702 15.3371L264.627 14.9875L264.317 15.9385ZM263.27 18.376L264.189 18.7699L264.19 18.7669L263.27 18.376ZM261.691 21.5504C261.277 21.3985 260.319 21.0974 258.855 20.6559L258.278 22.5707C259.76 23.0178 260.655 23.3007 261.002 23.4281L261.691 21.5504ZM258.865 20.6589C257.399 20.2001 256.083 19.804 254.918 19.4711L254.369 21.3941C255.514 21.7214 256.814 22.1124 258.268 22.5676L258.865 20.6589ZM254.921 19.4719C253.754 19.1349 252.47 18.8123 251.069 18.5039L250.639 20.4571C252.006 20.758 253.248 21.0702 254.366 21.3933L254.921 19.4719ZM251.069 18.5039C249.663 18.1942 248.5 18.0234 247.617 18.0234V20.0234C248.282 20.0234 249.278 20.1574 250.639 20.4571L251.069 18.5039ZM247.617 18.0234C247.132 18.0234 246.614 18.0947 246.177 18.3519L247.191 20.0758C247.182 20.081 247.204 20.0661 247.279 20.0508C247.353 20.0357 247.463 20.0234 247.617 20.0234V18.0234ZM246.081 18.4158C245.432 18.9057 244.75 19.6002 244.75 20.5088H246.75C246.75 20.5844 246.72 20.579 246.795 20.4745C246.872 20.3681 247.021 20.2118 247.286 20.0119L246.081 18.4158ZM244.75 20.5088C244.75 21.1962 245.107 21.7409 245.562 22.1354C246.003 22.5181 246.597 22.8181 247.272 23.0661L247.962 21.1888C247.392 20.9797 247.053 20.7814 246.872 20.6246C246.705 20.4796 246.75 20.4434 246.75 20.5088H244.75ZM247.28 23.0692C248.614 23.5455 250.202 23.8886 252.028 24.1104L252.269 22.125C250.542 21.9152 249.108 21.5981 247.953 21.1857L247.28 23.0692ZM252.04 24.1117C254.392 24.3689 256.21 24.9127 257.547 25.6948L258.557 23.9683C256.898 22.9984 254.781 22.3996 252.258 22.1236L252.04 24.1117ZM257.551 25.6966C258.954 26.5101 259.898 27.419 260.461 28.3966L262.194 27.3983C261.412 26.04 260.172 24.905 258.554 23.9664L257.551 25.6966ZM260.464 28.4007C261.056 29.4185 261.337 30.4334 261.337 31.4585H263.337C263.337 30.0461 262.945 28.687 262.192 27.3942L260.464 28.4007ZM261.337 31.4585C261.337 32.1852 261.194 32.8487 260.913 33.4608L262.732 34.2931C263.137 33.4072 263.337 32.4583 263.337 31.4585H261.337ZM260.918 33.4504C260.265 34.836 259.331 35.8434 258.116 36.5152C256.889 37.1935 255.316 37.5615 253.349 37.5615V39.5615C255.558 39.5615 257.486 39.1488 259.084 38.2656C260.693 37.3759 261.908 36.041 262.727 34.3035L260.918 33.4504ZM253.349 37.5615C252.278 37.5615 251.049 37.4423 249.657 37.196L249.309 39.1654C250.786 39.4268 252.134 39.5615 253.349 39.5615V37.5615ZM249.649 37.1945C248.247 36.9588 246.904 36.6615 245.619 36.3033L245.082 38.2299C246.438 38.608 247.85 38.9201 249.317 39.1668L249.649 37.1945ZM245.613 36.3016C244.323 35.951 242.942 35.5368 241.47 35.0587L240.852 36.9609C242.351 37.4476 243.763 37.8713 245.088 38.2316L245.613 36.3016ZM241.47 35.0587C239.985 34.5764 238.602 34.1259 237.32 33.7072L236.699 35.6083C237.982 36.0274 239.366 36.4783 240.852 36.9609L241.47 35.0587ZM237.911 35.0915C238.234 34.4202 238.647 33.6063 239.152 32.6479L237.382 31.7164C236.87 32.6877 236.446 33.5241 236.109 34.2239L237.911 35.0915ZM239.154 32.6431C239.662 31.6658 240.157 30.7139 240.639 29.7874L238.865 28.8639C238.382 29.791 237.887 30.7434 237.379 31.7211L239.154 32.6431ZM240.644 29.7778C240.88 29.3111 241.063 28.9398 241.188 28.6695C241.25 28.5358 241.303 28.4148 241.343 28.3137C241.363 28.264 241.384 28.2056 241.402 28.1454C241.411 28.116 241.457 27.9743 241.457 27.8022H239.457C239.457 27.7106 239.47 27.6426 239.475 27.6203C239.481 27.5909 239.487 27.5711 239.489 27.565C239.492 27.5532 239.492 27.5563 239.482 27.5812C239.463 27.6292 239.428 27.7098 239.373 27.83C239.263 28.0675 239.093 28.4135 238.86 28.8736L240.644 29.7778ZM239.775 28.5341C240.248 28.9749 240.817 29.3159 241.46 29.5701L242.195 27.7102C241.746 27.5327 241.401 27.3152 241.138 27.0704L239.775 28.5341ZM241.486 29.5799C242.081 29.7965 242.917 30.0523 243.979 30.3465L244.513 28.4191C243.467 28.1294 242.691 27.89 242.169 27.7003L241.486 29.5799ZM243.993 30.3502C245.045 30.6258 245.808 30.8666 246.305 31.0701L247.062 29.219C246.442 28.9654 245.58 28.6984 244.499 28.4154L243.993 30.3502ZM246.336 31.082C247.679 31.5806 249.073 31.8301 250.511 31.8301V29.8301C249.309 29.8301 248.151 29.6225 247.032 29.207L246.336 31.082ZM250.511 31.8301C251.392 31.8301 252.24 31.7406 253.053 31.5583L252.616 29.6067C251.956 29.7545 251.256 29.8301 250.511 29.8301V31.8301ZM253.069 31.5546C253.45 31.4626 253.778 31.3708 254.03 31.2773C254.153 31.2315 254.291 31.1735 254.418 31.0991C254.497 31.0527 254.779 30.8877 254.929 30.5507L253.101 29.7384C253.173 29.5779 253.27 29.4826 253.313 29.4439C253.361 29.4007 253.399 29.3784 253.407 29.3733C253.423 29.3639 253.407 29.375 253.334 29.4022C253.193 29.4547 252.955 29.5247 252.6 29.6104L253.069 31.5546ZM255.015 30.1445C255.015 29.7559 254.844 29.4506 254.666 29.2444C254.494 29.0455 254.283 28.8981 254.089 28.7865C253.699 28.5635 253.182 28.3768 252.591 28.2106L252.05 30.1361C252.588 30.2872 252.919 30.4212 253.094 30.5218C253.182 30.5722 253.183 30.5874 253.153 30.552C253.116 30.5092 253.015 30.3681 253.015 30.1445H255.015ZM252.604 28.2143C251.427 27.8666 250.123 27.603 248.696 27.4198L248.441 29.4035C249.782 29.5757 250.98 29.82 252.037 30.1324L252.604 28.2143ZM248.681 27.4179C247.191 27.2497 245.682 26.8885 244.151 26.3297L243.465 28.2084C245.134 28.8176 246.798 29.218 248.457 29.4053L248.681 27.4179ZM244.16 26.333C242.702 25.7846 241.476 24.9927 240.467 23.961L239.037 25.3593C240.263 26.6127 241.741 27.5601 243.456 28.2051L244.16 26.333ZM240.467 23.961C239.542 23.0152 239.076 21.8612 239.076 20.4326H237.076C237.076 22.3556 237.727 24.02 239.037 25.3593L240.467 23.961ZM239.076 20.4326C239.076 19.3219 239.356 18.1259 239.955 16.8352L238.14 15.9939C237.444 17.4962 237.076 18.9789 237.076 20.4326H239.076ZM239.957 16.8289C240.581 15.4591 241.491 14.5101 242.687 13.9225L241.806 12.1273C240.159 12.9362 238.935 14.2469 238.137 16.0002L239.957 16.8289ZM242.694 13.9193C243.947 13.2928 245.488 12.9585 247.35 12.9585V10.9585C245.252 10.9585 243.39 11.3352 241.799 12.1305L242.694 13.9193ZM247.35 12.9585C249.54 12.9585 251.808 13.2687 254.157 13.8958L254.673 11.9635C252.172 11.2958 249.73 10.9585 247.35 10.9585V12.9585ZM254.157 13.8958C256.557 14.5365 259.838 15.5331 264.008 16.8894L264.627 14.9875C260.443 13.627 257.123 12.6178 254.673 11.9635L254.157 13.8958ZM263.411 15.5156C263.313 15.7265 262.954 16.5623 262.35 17.985L264.19 18.7669C264.805 17.3205 265.144 16.5313 265.224 16.3614L263.411 15.5156ZM262.351 17.9821C261.742 19.4027 261.29 20.4331 260.991 21.08L262.807 21.9181C263.118 21.2447 263.579 20.193 264.189 18.7699L262.351 17.9821ZM260.991 21.08C260.841 21.4039 260.732 21.6236 260.659 21.7546C260.62 21.8244 260.607 21.8401 260.617 21.8274C260.62 21.8238 260.653 21.7781 260.715 21.7236C260.747 21.6956 260.807 21.6461 260.895 21.6001C260.98 21.5556 261.137 21.4893 261.347 21.4893V23.4893C261.744 23.4893 261.995 23.2615 262.037 23.224C262.123 23.1488 262.183 23.0722 262.217 23.0274C262.288 22.9321 262.353 22.824 262.406 22.7288C262.517 22.5297 262.652 22.2543 262.807 21.9181L260.991 21.08Z" fill="black"/>
</g>
<defs>
<filter id="filter0_d_116_53" x="0.152344" y="0.970703" width="268.165" height="50.5801" filterUnits="userSpaceOnUse" color-interpolation-filters="sRGB">
<feFlood flood-opacity="0" result="BackgroundImageFix"/>
<feColorMatrix in="SourceAlpha" type="matrix" values="0 0 0 0 0 0 0 0 0 0 0 0 0 0 0 0 0 0 127 0" result="hardAlpha"/>
<feOffset dy="4"/>
<feGaussianBlur stdDeviation="2"/>
<feComposite in2="hardAlpha" operator="out"/>
<feColorMatrix type="matrix" values="0 0 0 0 0 0 0 0 0 0 0 0 0 0 0 0 0 0 0.25 0"/>
<feBlend mode="normal" in2="BackgroundImageFix" result="effect1_dropShadow_116_53"/>
<feBlend mode="normal" in="SourceGraphic" in2="effect1_dropShadow_116_53" result="shape"/>
</filter>
</defs>
</svg>
