<svg width="44" height="44" viewBox="0 0 44 44" fill="none" xmlns="http://www.w3.org/2000/svg">
<path d="M16.3711 5.9125L19.3617 11H19.25H13.0625C11.1633 11 9.625 9.46172 9.625 7.5625C9.625 5.66328 11.1633 4.125 13.0625 4.125H13.2516C14.532 4.125 15.7266 4.80391 16.3711 5.9125ZM5.5 7.5625C5.5 8.8 5.80078 9.96875 6.325 11H2.75C1.22891 11 0 12.2289 0 13.75V19.25C0 20.7711 1.22891 22 2.75 22H41.25C42.7711 22 44 20.7711 44 19.25V13.75C44 12.2289 42.7711 11 41.25 11H37.675C38.1992 9.96875 38.5 8.8 38.5 7.5625C38.5 3.38594 35.1141 0 30.9375 0H30.7484C28.007 0 25.4633 1.45234 24.0711 3.81563L22 7.34766L19.9289 3.82422C18.5367 1.45234 15.993 0 13.2516 0H13.0625C8.88594 0 5.5 3.38594 5.5 7.5625ZM34.375 7.5625C34.375 9.46172 32.8367 11 30.9375 11H24.75H24.6383L27.6289 5.9125C28.282 4.80391 29.468 4.125 30.7484 4.125H30.9375C32.8367 4.125 34.375 5.66328 34.375 7.5625ZM2.75 24.75V39.875C2.75 42.1523 4.59766 44 6.875 44H19.25V24.75H2.75ZM24.75 44H37.125C39.4023 44 41.25 42.1523 41.25 39.875V24.75H24.75V44Z" fill="#5AFFF5"/>
</svg>
