<svg width="47" height="47" viewBox="0 0 47 47" fill="none" xmlns="http://www.w3.org/2000/svg">
<path d="M4.45215 20.5626H3.67188C2.45098 20.5626 1.46875 19.5804 1.46875 18.3595V6.60948C1.46875 5.71905 2.00117 4.91124 2.82734 4.57159C3.65352 4.23194 4.59902 4.41554 5.23242 5.04894L9.05117 8.86769C17.0926 0.927257 30.0451 0.954796 38.0406 8.95948C46.0728 16.9917 46.0728 30.0085 38.0406 38.0407C30.0084 46.073 16.9916 46.073 8.95937 38.0407C7.81191 36.8933 7.81191 35.0298 8.95937 33.8823C10.1068 32.7349 11.9703 32.7349 13.1178 33.8823C18.8551 39.6196 28.1541 39.6196 33.8914 33.8823C39.6287 28.145 39.6287 18.846 33.8914 13.1087C28.1816 7.39894 18.9561 7.3714 13.2096 13.0169L16.9824 16.7989C17.6158 17.4323 17.7994 18.3778 17.4598 19.204C17.1201 20.0302 16.3123 20.5626 15.4219 20.5626H4.45215Z" fill="white"/>
</svg>
