<svg width="41" height="47" viewBox="0 0 41 47" fill="none" xmlns="http://www.w3.org/2000/svg">
<g clip-path="url(#clip0_120_94)">
<path d="M14.6429 10.2812C14.6429 7.04082 17.2694 4.40625 20.5 4.40625C23.7306 4.40625 26.3571 7.04082 26.3571 10.2812V14.6875H14.6429V10.2812ZM10.25 14.6875H4.39286C1.96763 14.6875 0 16.6611 0 19.0938V38.1875C0 43.0527 3.93527 47 8.78571 47H32.2143C37.0647 47 41 43.0527 41 38.1875V19.0938C41 16.6611 39.0324 14.6875 36.6071 14.6875H30.75V10.2812C30.75 4.59902 26.165 0 20.5 0C14.835 0 10.25 4.59902 10.25 10.2812V14.6875ZM12.4464 23.5C11.2292 23.5 10.25 22.5178 10.25 21.2969C10.25 20.076 11.2292 19.0938 12.4464 19.0938C13.6636 19.0938 14.6429 20.076 14.6429 21.2969C14.6429 22.5178 13.6636 23.5 12.4464 23.5ZM30.75 21.2969C30.75 22.5178 29.7708 23.5 28.5536 23.5C27.3364 23.5 26.3571 22.5178 26.3571 21.2969C26.3571 20.076 27.3364 19.0938 28.5536 19.0938C29.7708 19.0938 30.75 20.076 30.75 21.2969Z" fill="#885EFE"/>
</g>
<defs>
<clipPath id="clip0_120_94">
<rect width="41" height="47" fill="white"/>
</clipPath>
</defs>
</svg>
