<svg width="52" height="46" viewBox="0 0 52 46" fill="none" xmlns="http://www.w3.org/2000/svg">
<g clip-path="url(#clip0_120_71)">
<path d="M28.6091 1.61719C28.1306 0.628906 27.1195 0 26.0091 0C24.8987 0 23.8966 0.628906 23.4091 1.61719L17.6042 13.5035L4.64034 15.4082C3.55701 15.5699 2.65423 16.3246 2.3202 17.3578C1.98617 18.391 2.25701 19.532 3.03339 20.2957L12.4403 29.5586L10.2195 42.6488C10.0389 43.727 10.4903 44.823 11.3841 45.4609C12.2778 46.0988 13.4605 46.1797 14.4355 45.6676L26.0181 39.5133L37.6008 45.6676C38.5758 46.1797 39.7584 46.1078 40.6521 45.4609C41.5459 44.8141 41.9973 43.727 41.8167 42.6488L39.5869 29.5586L48.9938 20.2957C49.7702 19.532 50.0501 18.391 49.707 17.3578C49.364 16.3246 48.4702 15.5699 47.3869 15.4082L34.414 13.5035L28.6091 1.61719Z" fill="#EDD500"/>
</g>
<defs>
<clipPath id="clip0_120_71">
<rect width="52" height="46" fill="white"/>
</clipPath>
</defs>
</svg>
