<svg width="65" height="52" viewBox="0 0 65 52" fill="none" xmlns="http://www.w3.org/2000/svg">
<path d="M35.75 13C35.75 20.1805 29.9305 26 22.75 26C15.5695 26 9.75 20.1805 9.75 13C9.75 5.81953 15.5695 0 22.75 0C29.9305 0 35.75 5.81953 35.75 13ZM0 48.9836C0 38.9797 8.10469 30.875 18.1086 30.875H27.3914C37.3953 30.875 45.5 38.9797 45.5 48.9836C45.5 50.6492 44.1492 52 42.4836 52H3.01641C1.35078 52 0 50.6492 0 48.9836ZM61.882 52H47.8766C48.425 51.0453 48.75 49.9383 48.75 48.75V47.9375C48.75 41.7727 45.9977 36.2375 41.6609 32.5203C41.9047 32.5102 42.1383 32.5 42.382 32.5H48.618C57.6672 32.5 65 39.8328 65 48.882C65 50.6086 63.5984 52 61.882 52ZM43.875 26C40.7266 26 37.8828 24.7203 35.8211 22.6586C37.8219 19.957 39 16.6156 39 13C39 10.2781 38.3297 7.70859 37.1414 5.45391C39.0305 4.07266 41.3563 3.25 43.875 3.25C50.1617 3.25 55.25 8.33828 55.25 14.625C55.25 20.9117 50.1617 26 43.875 26Z" fill="white"/>
</svg>
